<svg id="svg" version="1.1" xmlns="http://www.w3.org/2000/svg" xmlns:xlink="http://www.w3.org/1999/xlink" width="400" height="495.5223880597015" viewBox="0, 0, 400,495.5223880597015"><g id="svgg"><path id="path0" d="M46.000 37.574 C 42.840 38.212,41.830 39.153,39.092 44.010 C 38.531 45.005,36.972 46.836,35.627 48.078 C 34.180 49.416,32.819 51.126,32.291 52.269 L 31.400 54.200 31.200 188.200 L 31.000 322.200 30.041 324.000 C 29.513 324.990,27.961 326.970,26.591 328.400 C 22.401 332.773,22.600 331.865,22.600 346.600 C 22.600 361.442,22.392 360.549,27.021 365.593 C 31.377 370.340,30.972 366.242,31.200 407.800 C 31.386 441.677,31.449 444.290,32.110 445.499 C 33.343 447.756,42.794 456.911,45.407 458.380 C 46.723 459.119,49.240 461.110,51.000 462.803 C 52.972 464.701,54.814 466.097,55.800 466.441 C 58.186 467.274,341.405 467.281,343.765 466.447 C 344.804 466.081,346.787 464.465,349.659 461.647 C 360.637 450.874,364.741 446.599,365.283 445.372 C 365.699 444.429,365.839 426.931,366.000 356.000 L 366.200 267.800 367.380 265.671 C 368.028 264.500,369.631 262.613,370.940 261.478 C 376.350 256.792,376.374 250.640,371.003 245.390 C 369.400 243.823,367.663 241.744,367.144 240.770 L 366.200 239.000 366.200 183.800 C 366.200 120.198,365.636 127.706,370.827 122.196 C 375.113 117.645,375.000 118.166,375.000 103.000 C 375.000 87.823,375.133 88.425,370.731 83.751 C 366.121 78.857,366.261 79.376,365.989 66.200 C 365.695 51.980,365.467 51.321,360.000 48.918 C 357.187 47.681,355.681 46.143,353.991 42.782 C 352.158 39.136,350.916 38.108,347.711 37.583 C 345.018 37.142,48.186 37.133,46.000 37.574 M326.000 44.933 C 327.776 45.524,328.740 46.230,331.000 48.592 C 334.799 52.564,334.639 52.507,343.000 52.815 C 356.848 53.323,358.393 54.846,358.822 68.400 C 359.139 78.413,359.057 78.189,364.516 83.912 C 370.046 89.709,369.800 88.811,369.800 103.200 C 369.800 117.274,369.968 116.681,364.350 122.385 C 362.139 124.630,360.400 126.793,359.890 127.932 L 359.053 129.800 359.153 184.200 C 359.208 214.120,359.357 239.050,359.484 239.600 C 359.798 240.964,361.132 243.575,363.525 247.516 C 366.724 252.783,366.675 253.966,362.983 260.430 C 358.619 268.070,359.107 256.818,359.045 351.200 C 358.983 446.077,359.411 436.476,355.066 440.464 C 353.710 441.709,352.060 443.286,351.400 443.969 C 350.740 444.652,348.407 447.020,346.215 449.233 C 343.297 452.178,341.794 454.073,340.603 456.310 C 338.764 459.762,337.221 460.863,333.188 461.603 C 329.407 462.296,63.766 461.945,62.000 461.245 C 59.546 460.271,58.168 458.932,56.649 456.040 C 55.633 454.106,54.465 452.622,52.929 451.311 C 49.989 448.802,49.348 448.165,47.162 445.576 C 45.941 444.130,44.353 442.868,42.429 441.814 C 36.489 438.562,36.623 439.488,36.610 401.400 C 36.598 365.742,37.026 369.249,32.029 363.859 C 27.534 359.012,27.618 359.341,27.618 346.400 C 27.618 333.205,27.432 333.839,32.985 328.036 C 35.103 325.823,37.143 323.334,37.518 322.506 C 38.156 321.097,38.200 312.689,38.200 191.600 C 38.200 50.429,38.048 59.340,40.499 56.548 C 43.001 53.698,44.853 53.188,54.000 52.824 C 62.603 52.483,62.916 52.378,66.073 48.791 C 68.684 45.825,70.726 44.789,74.731 44.402 C 82.500 43.650,323.679 44.160,326.000 44.933 " stroke="none" fill="#9c9c9c" fill-rule="evenodd"></path><path id="path1" d="M61.504 2.017 C 57.545 2.481,55.182 3.404,52.848 5.396 C 50.369 7.513,50.314 7.523,40.600 7.737 C 28.409 8.006,24.852 9.744,21.063 17.287 C 19.960 19.482,19.510 19.954,17.508 21.017 C 12.583 23.633,11.399 25.945,10.789 34.141 C 10.268 41.142,10.272 41.126,8.136 45.764 C 7.113 47.984,5.990 50.610,5.639 51.600 C 5.061 53.229,4.981 65.489,4.800 180.858 C 4.601 307.613,4.596 308.321,3.800 309.201 C 3.360 309.687,2.324 310.430,1.498 310.852 L -0.004 311.619 0.098 346.108 L 0.200 380.597 2.081 381.613 C 3.115 382.171,4.105 382.772,4.281 382.947 C 4.456 383.123,4.693 401.836,4.807 424.533 C 5.053 473.501,4.647 470.432,11.403 474.473 C 12.995 475.425,13.898 476.380,15.201 478.493 C 16.583 480.732,17.458 481.625,19.756 483.143 C 21.612 484.368,23.036 485.686,23.854 486.936 C 25.836 489.962,26.809 490.826,29.812 492.229 C 31.359 492.952,32.962 493.916,33.374 494.372 L 34.124 495.200 183.882 495.200 C 324.191 495.200,333.720 495.157,334.920 494.519 C 335.946 493.972,337.828 493.782,344.400 493.560 C 355.530 493.184,357.843 492.380,362.257 487.352 C 364.107 485.245,365.175 484.426,367.396 483.414 C 370.332 482.075,371.807 480.685,373.669 477.499 C 374.377 476.288,375.391 475.298,376.669 474.570 C 381.463 471.838,383.531 467.589,383.586 460.362 C 383.600 458.551,384.425 457.200,385.516 457.200 C 388.482 457.200,392.746 453.860,393.976 450.573 C 395.538 446.397,395.600 442.916,395.600 359.182 L 395.600 278.049 397.206 276.193 C 400.167 272.772,400.000 274.204,400.000 252.246 C 400.000 230.637,400.085 231.423,397.426 228.429 L 395.600 226.373 395.606 179.687 C 395.610 152.824,395.765 132.759,395.971 132.433 C 396.169 132.121,397.111 131.491,398.065 131.033 L 399.800 130.200 399.902 98.562 L 400.005 66.924 398.414 66.206 C 395.583 64.930,395.697 65.482,395.485 52.000 C 395.225 35.473,394.333 32.402,389.168 30.244 C 387.024 29.349,386.915 29.057,386.465 23.000 C 385.463 9.529,382.694 7.600,364.358 7.600 C 356.128 7.600,355.005 7.380,353.200 5.414 C 351.948 4.050,350.413 3.234,347.600 2.439 C 345.174 1.754,67.242 1.343,61.504 2.017 M352.600 32.486 C 355.522 33.489,357.009 34.977,358.909 38.800 L 360.600 42.200 364.159 44.018 C 370.872 47.447,371.207 48.370,371.552 64.400 C 371.843 77.941,371.756 77.586,375.498 80.618 C 380.710 84.841,380.888 85.650,380.708 104.275 C 380.548 120.717,380.472 121.159,377.295 124.107 C 372.878 128.206,372.471 128.679,372.046 130.209 C 371.378 132.616,371.422 234.312,372.092 236.554 C 372.411 237.620,373.213 238.764,374.367 239.800 C 379.669 244.558,380.351 245.886,380.693 252.105 C 381.076 259.086,379.883 262.229,375.498 265.782 C 374.232 266.808,372.882 268.221,372.498 268.924 C 371.842 270.124,371.788 275.475,371.600 358.600 C 371.407 443.833,371.373 447.057,370.653 448.600 C 370.017 449.962,367.015 453.219,359.496 460.703 C 358.669 461.526,356.057 464.126,353.693 466.479 C 350.832 469.327,348.727 471.067,347.397 471.679 L 345.400 472.600 199.800 472.600 L 54.200 472.600 51.967 471.696 C 50.267 471.008,49.018 470.040,46.732 467.636 C 44.937 465.749,42.904 464.061,41.679 463.440 C 39.121 462.144,37.242 460.509,35.356 457.940 C 34.550 456.842,32.738 455.071,31.328 454.004 C 28.455 451.829,27.492 450.738,26.489 448.523 C 25.858 447.128,25.783 443.913,25.600 410.200 C 25.371 368.130,25.839 372.669,21.268 368.118 C 17.034 363.903,17.061 364.027,16.893 347.880 C 16.710 330.376,16.961 329.211,21.765 325.261 C 22.846 324.373,24.106 323.052,24.565 322.327 L 25.400 321.008 25.600 186.404 C 25.792 56.861,25.828 51.718,26.539 49.622 C 27.129 47.880,27.932 46.791,30.539 44.197 C 32.690 42.055,34.344 39.953,35.397 38.022 C 37.501 34.163,39.245 32.852,43.400 32.009 C 47.038 31.270,350.422 31.739,352.600 32.486 M378.409 467.750 L 377.540 468.600 378.270 467.043 C 378.787 465.941,379.041 465.693,379.139 466.193 C 379.215 466.582,378.887 467.282,378.409 467.750 " stroke="none" fill="#040404" fill-rule="evenodd"></path><path id="path2" d="M79.800 54.268 C 77.136 54.604,76.509 54.986,73.418 58.161 C 69.216 62.476,68.458 62.741,58.924 63.229 C 50.705 63.649,49.925 63.841,48.919 65.683 C 48.231 66.943,48.199 72.579,48.181 195.200 C 48.166 295.023,48.053 323.828,47.671 325.334 C 46.601 329.558,45.135 331.346,40.900 333.595 C 36.568 335.895,36.600 335.806,36.600 345.730 C 36.600 355.503,36.792 356.242,39.945 358.565 C 46.994 363.761,47.744 370.441,45.716 410.000 C 45.430 415.570,46.349 428.381,47.168 430.236 C 47.671 431.376,48.545 432.178,50.815 433.582 C 53.019 434.946,54.323 436.125,55.800 438.092 C 56.900 439.557,59.058 441.807,60.596 443.093 C 62.689 444.844,63.795 446.165,65.001 448.355 C 67.453 452.808,66.220 452.539,85.800 452.883 C 128.621 453.633,328.464 453.077,329.776 452.203 C 330.492 451.726,331.627 450.194,332.512 448.509 C 333.624 446.391,334.772 444.964,336.852 443.115 C 338.408 441.732,340.390 439.564,341.256 438.298 C 342.123 437.032,343.904 435.142,345.214 434.098 C 349.192 430.927,348.937 432.585,349.358 407.200 C 349.602 392.492,349.578 373.998,349.285 352.400 C 348.613 302.745,348.973 268.131,350.230 261.447 C 351.353 255.477,351.423 252.501,350.530 248.600 C 349.962 246.123,349.090 173.106,349.123 130.800 C 349.129 122.906,350.836 119.607,356.170 117.181 C 360.927 115.018,361.460 113.098,360.896 100.168 C 360.524 91.636,360.444 91.440,356.491 89.437 C 350.511 86.406,348.827 82.516,348.808 71.687 C 348.794 63.949,348.517 63.689,339.923 63.368 C 329.693 62.986,326.916 62.050,323.730 57.909 C 322.750 56.636,321.375 55.280,320.674 54.897 C 319.495 54.252,84.784 53.639,79.800 54.268 " stroke="none" fill="#fcfcfc" fill-rule="evenodd"></path><path id="path3" d="M43.400 32.009 C 39.245 32.852,37.501 34.163,35.397 38.022 C 34.344 39.953,32.690 42.055,30.539 44.197 C 27.932 46.791,27.129 47.880,26.539 49.622 C 25.828 51.718,25.792 56.861,25.600 186.404 L 25.400 321.008 24.565 322.327 C 24.106 323.052,22.846 324.373,21.765 325.261 C 16.961 329.211,16.710 330.376,16.893 347.880 C 17.061 364.027,17.034 363.903,21.268 368.118 C 25.839 372.669,25.371 368.130,25.600 410.200 C 25.783 443.913,25.858 447.128,26.489 448.523 C 27.492 450.738,28.455 451.829,31.328 454.004 C 32.738 455.071,34.550 456.842,35.356 457.940 C 37.242 460.509,39.121 462.144,41.679 463.440 C 42.904 464.061,44.937 465.749,46.732 467.636 C 49.018 470.040,50.267 471.008,51.967 471.696 L 54.200 472.600 199.800 472.600 L 345.400 472.600 347.397 471.679 C 348.727 471.067,350.832 469.327,353.693 466.479 C 356.057 464.126,358.669 461.526,359.496 460.703 C 367.015 453.219,370.017 449.962,370.653 448.600 C 371.373 447.057,371.407 443.833,371.600 358.600 C 371.788 275.475,371.842 270.124,372.498 268.924 C 372.882 268.221,374.232 266.808,375.498 265.782 C 379.883 262.229,381.076 259.086,380.693 252.105 C 380.351 245.886,379.669 244.558,374.367 239.800 C 373.213 238.764,372.411 237.620,372.092 236.554 C 371.422 234.312,371.378 132.616,372.046 130.209 C 372.471 128.679,372.878 128.206,377.295 124.107 C 380.472 121.159,380.548 120.717,380.708 104.275 C 380.888 85.650,380.710 84.841,375.498 80.618 C 371.756 77.586,371.843 77.941,371.552 64.400 C 371.207 48.370,370.872 47.447,364.159 44.018 L 360.600 42.200 358.909 38.800 C 357.009 34.977,355.522 33.489,352.600 32.486 C 350.422 31.739,47.038 31.270,43.400 32.009 M347.711 37.583 C 350.916 38.108,352.158 39.136,353.991 42.782 C 355.681 46.143,357.187 47.681,360.000 48.918 C 365.467 51.321,365.695 51.980,365.989 66.200 C 366.261 79.376,366.121 78.857,370.731 83.751 C 375.133 88.425,375.000 87.823,375.000 103.000 C 375.000 118.166,375.113 117.645,370.827 122.196 C 365.636 127.706,366.200 120.198,366.200 183.800 L 366.200 239.000 367.144 240.770 C 367.663 241.744,369.400 243.823,371.003 245.390 C 376.374 250.640,376.350 256.792,370.940 261.478 C 369.631 262.613,368.028 264.500,367.380 265.671 L 366.200 267.800 366.000 356.000 C 365.839 426.931,365.699 444.429,365.283 445.372 C 364.741 446.599,360.637 450.874,349.659 461.647 C 346.787 464.465,344.804 466.081,343.765 466.447 C 341.405 467.281,58.186 467.274,55.800 466.441 C 54.814 466.097,52.972 464.701,51.000 462.803 C 49.240 461.110,46.723 459.119,45.407 458.380 C 42.794 456.911,33.343 447.756,32.110 445.499 C 31.449 444.290,31.386 441.677,31.200 407.800 C 30.972 366.242,31.377 370.340,27.021 365.593 C 22.392 360.549,22.600 361.442,22.600 346.600 C 22.600 331.865,22.401 332.773,26.591 328.400 C 27.961 326.970,29.513 324.990,30.041 324.000 L 31.000 322.200 31.200 188.200 L 31.400 54.200 32.291 52.269 C 32.819 51.126,34.180 49.416,35.627 48.078 C 36.972 46.836,38.531 45.005,39.092 44.010 C 41.830 39.153,42.840 38.212,46.000 37.574 C 48.186 37.133,345.018 37.142,347.711 37.583 M378.270 467.043 L 377.540 468.600 378.409 467.750 C 378.887 467.282,379.215 466.582,379.139 466.193 C 379.041 465.693,378.787 465.941,378.270 467.043 " stroke="none" fill="#2c2c2c" fill-rule="evenodd"></path><path id="path4" d="M74.731 44.402 C 70.726 44.789,68.684 45.825,66.073 48.791 C 62.916 52.378,62.603 52.483,54.000 52.824 C 44.853 53.188,43.001 53.698,40.499 56.548 C 38.048 59.340,38.200 50.429,38.200 191.600 C 38.200 312.689,38.156 321.097,37.518 322.506 C 37.143 323.334,35.103 325.823,32.985 328.036 C 27.432 333.839,27.618 333.205,27.618 346.400 C 27.618 359.341,27.534 359.012,32.029 363.859 C 37.026 369.249,36.598 365.742,36.610 401.400 C 36.623 439.488,36.489 438.562,42.429 441.814 C 44.353 442.868,45.941 444.130,47.162 445.576 C 49.348 448.165,49.989 448.802,52.929 451.311 C 54.465 452.622,55.633 454.106,56.649 456.040 C 58.168 458.932,59.546 460.271,62.000 461.245 C 63.766 461.945,329.407 462.296,333.188 461.603 C 337.221 460.863,338.764 459.762,340.603 456.310 C 341.794 454.073,343.297 452.178,346.215 449.233 C 348.407 447.020,350.740 444.652,351.400 443.969 C 352.060 443.286,353.710 441.709,355.066 440.464 C 359.411 436.476,358.983 446.077,359.045 351.200 C 359.107 256.818,358.619 268.070,362.983 260.430 C 366.675 253.966,366.724 252.783,363.525 247.516 C 361.132 243.575,359.798 240.964,359.484 239.600 C 359.357 239.050,359.208 214.120,359.153 184.200 L 359.053 129.800 359.890 127.932 C 360.400 126.793,362.139 124.630,364.350 122.385 C 369.968 116.681,369.800 117.274,369.800 103.200 C 369.800 88.811,370.046 89.709,364.516 83.912 C 359.057 78.189,359.139 78.413,358.822 68.400 C 358.393 54.846,356.848 53.323,343.000 52.815 C 334.639 52.507,334.799 52.564,331.000 48.592 C 326.277 43.655,342.478 44.207,200.800 44.153 C 133.150 44.126,76.419 44.239,74.731 44.402 M323.456 49.530 C 324.845 50.159,326.249 51.296,327.790 53.039 C 331.365 57.087,331.982 57.297,341.200 57.605 C 353.580 58.020,353.997 58.430,354.399 70.600 C 354.737 80.848,354.876 81.153,361.183 85.501 C 365.990 88.815,366.559 90.992,366.326 105.161 C 366.129 117.106,366.043 117.314,359.408 121.890 C 357.309 123.338,356.392 124.282,355.619 125.790 L 354.600 127.779 354.600 183.990 L 354.600 240.200 355.654 243.000 C 356.234 244.540,357.196 247.060,357.792 248.600 C 359.346 252.614,359.096 255.981,356.851 261.255 C 354.318 267.203,354.417 263.598,354.408 350.723 C 354.402 410.591,354.282 431.320,353.931 432.723 C 353.537 434.305,352.859 435.198,349.624 438.400 C 347.513 440.490,345.144 442.920,344.359 443.800 C 343.575 444.680,341.864 446.390,340.557 447.600 C 338.987 449.053,337.668 450.782,336.671 452.694 C 334.976 455.947,333.436 457.334,330.800 457.983 C 329.496 458.305,292.868 458.396,197.789 458.314 L 66.579 458.200 64.589 457.180 C 63.064 456.399,62.303 455.652,61.328 453.980 C 60.628 452.781,59.638 451.105,59.128 450.255 C 58.618 449.405,57.162 447.891,55.893 446.890 C 54.624 445.889,52.596 443.846,51.387 442.350 C 49.839 440.434,48.355 439.134,46.368 437.953 C 43.113 436.020,41.830 434.530,41.241 432.000 C 40.406 428.410,39.945 412.387,40.421 403.445 C 41.090 390.865,40.791 369.846,39.916 367.900 C 39.545 367.075,37.653 364.734,35.713 362.697 C 31.148 357.905,31.200 358.095,31.200 346.113 C 31.200 333.696,31.454 332.947,36.923 329.247 C 40.284 326.973,40.920 326.324,41.885 324.185 C 42.566 322.676,42.610 316.372,42.800 192.800 C 42.968 83.825,43.088 62.840,43.549 62.000 C 45.469 58.501,46.867 58.033,56.610 57.631 C 65.354 57.270,66.271 56.944,69.800 52.948 C 74.099 48.082,60.361 48.526,205.600 48.567 L 321.400 48.600 323.456 49.530 " stroke="none" fill="#bcbcbc" fill-rule="evenodd"></path><path id="path5" d="M80.400 52.373 C 75.817 52.677,75.410 52.881,71.600 56.779 C 67.861 60.604,67.418 60.750,58.063 61.238 C 46.890 61.820,46.853 61.851,46.309 70.926 C 46.094 74.511,46.051 126.991,46.203 199.000 C 46.432 307.526,46.393 321.322,45.849 323.911 C 44.968 328.111,43.609 329.897,39.800 331.858 C 34.946 334.358,34.800 334.765,34.800 345.772 C 34.800 356.745,34.832 356.857,39.102 360.679 C 44.509 365.517,44.949 367.560,44.600 386.200 C 44.468 393.240,44.186 401.938,43.973 405.529 C 43.617 411.549,43.919 422.331,44.622 428.680 C 44.915 431.328,46.100 433.086,48.610 434.600 C 49.705 435.260,51.500 436.768,52.600 437.951 C 55.449 441.015,57.962 443.524,60.259 445.601 C 61.363 446.599,62.865 448.549,63.626 449.973 C 65.315 453.133,66.497 454.036,69.482 454.451 C 73.262 454.975,328.453 454.912,329.835 454.387 C 331.556 453.732,332.354 452.865,333.691 450.200 C 334.858 447.871,337.173 445.307,346.281 436.251 C 348.086 434.456,349.886 432.271,350.281 431.394 C 350.965 429.877,351.000 425.862,351.000 347.800 L 351.000 265.800 352.293 261.200 C 353.943 255.329,353.994 252.351,352.531 247.179 L 351.462 243.400 351.203 186.200 C 350.891 117.207,350.407 122.178,357.800 118.486 C 362.501 116.139,362.762 115.355,362.773 103.600 C 362.785 90.482,362.838 90.615,356.004 86.666 C 354.131 85.583,353.606 85.000,352.433 82.696 L 351.059 79.996 350.822 72.470 C 350.480 61.550,350.752 61.820,339.521 61.288 C 329.991 60.836,328.496 60.321,325.312 56.394 C 324.194 55.014,322.653 53.655,321.600 53.118 L 319.800 52.200 202.000 52.161 C 137.210 52.139,82.490 52.235,80.400 52.373 M320.674 54.897 C 321.375 55.280,322.750 56.636,323.730 57.909 C 326.916 62.050,329.693 62.986,339.923 63.368 C 348.517 63.689,348.794 63.949,348.808 71.687 C 348.827 82.516,350.511 86.406,356.491 89.437 C 360.444 91.440,360.524 91.636,360.896 100.168 C 361.460 113.098,360.927 115.018,356.170 117.181 C 350.836 119.607,349.129 122.906,349.123 130.800 C 349.090 173.106,349.962 246.123,350.530 248.600 C 351.423 252.501,351.353 255.477,350.230 261.447 C 348.973 268.131,348.613 302.745,349.285 352.400 C 349.578 373.998,349.602 392.492,349.358 407.200 C 348.937 432.585,349.192 430.927,345.214 434.098 C 343.904 435.142,342.123 437.032,341.256 438.298 C 340.390 439.564,338.408 441.732,336.852 443.115 C 334.772 444.964,333.624 446.391,332.512 448.509 C 331.627 450.194,330.492 451.726,329.776 452.203 C 328.464 453.077,128.621 453.633,85.800 452.883 C 66.220 452.539,67.453 452.808,65.001 448.355 C 63.795 446.165,62.689 444.844,60.596 443.093 C 59.058 441.807,56.900 439.557,55.800 438.092 C 54.323 436.125,53.019 434.946,50.815 433.582 C 48.545 432.178,47.671 431.376,47.168 430.236 C 46.349 428.381,45.430 415.570,45.716 410.000 C 47.744 370.441,46.994 363.761,39.945 358.565 C 36.792 356.242,36.600 355.503,36.600 345.730 C 36.600 335.806,36.568 335.895,40.900 333.595 C 45.135 331.346,46.601 329.558,47.671 325.334 C 48.053 323.828,48.166 295.023,48.181 195.200 C 48.199 72.579,48.231 66.943,48.919 65.683 C 49.925 63.841,50.705 63.649,58.924 63.229 C 68.458 62.741,69.216 62.476,73.418 58.161 C 76.509 54.986,77.136 54.604,79.800 54.268 C 84.784 53.639,319.495 54.252,320.674 54.897 " stroke="none" fill="#f4f4f4" fill-rule="evenodd"></path><path id="path6" d="M82.400 48.769 C 73.595 49.050,73.099 49.214,69.800 52.948 C 66.271 56.944,65.354 57.270,56.610 57.631 C 46.867 58.033,45.469 58.501,43.549 62.000 C 43.088 62.840,42.968 83.825,42.800 192.800 C 42.610 316.372,42.566 322.676,41.885 324.185 C 40.920 326.324,40.284 326.973,36.923 329.247 C 31.454 332.947,31.200 333.696,31.200 346.113 C 31.200 358.095,31.148 357.905,35.713 362.697 C 37.653 364.734,39.545 367.075,39.916 367.900 C 40.791 369.846,41.090 390.865,40.421 403.445 C 39.945 412.387,40.406 428.410,41.241 432.000 C 41.830 434.530,43.113 436.020,46.368 437.953 C 48.355 439.134,49.839 440.434,51.387 442.350 C 52.596 443.846,54.624 445.889,55.893 446.890 C 57.162 447.891,58.618 449.405,59.128 450.255 C 59.638 451.105,60.628 452.781,61.328 453.980 C 62.303 455.652,63.064 456.399,64.589 457.180 L 66.579 458.200 197.789 458.314 C 292.868 458.396,329.496 458.305,330.800 457.983 C 333.436 457.334,334.976 455.947,336.671 452.694 C 337.668 450.782,338.987 449.053,340.557 447.600 C 341.864 446.390,343.575 444.680,344.359 443.800 C 345.144 442.920,347.513 440.490,349.624 438.400 C 352.859 435.198,353.537 434.305,353.931 432.723 C 354.282 431.320,354.402 410.591,354.408 350.723 C 354.417 263.598,354.318 267.203,356.851 261.255 C 359.096 255.981,359.346 252.614,357.792 248.600 C 357.196 247.060,356.234 244.540,355.654 243.000 L 354.600 240.200 354.600 183.990 L 354.600 127.779 355.619 125.790 C 356.392 124.282,357.309 123.338,359.408 121.890 C 366.043 117.314,366.129 117.106,366.326 105.161 C 366.559 90.992,365.990 88.815,361.183 85.501 C 354.876 81.153,354.737 80.848,354.399 70.600 C 353.997 58.430,353.580 58.020,341.200 57.605 C 331.982 57.297,331.365 57.087,327.790 53.039 C 326.249 51.296,324.845 50.159,323.456 49.530 L 321.400 48.600 205.600 48.567 C 141.910 48.549,86.470 48.640,82.400 48.769 M321.600 53.118 C 322.653 53.655,324.194 55.014,325.312 56.394 C 328.496 60.321,329.991 60.836,339.521 61.288 C 350.752 61.820,350.480 61.550,350.822 72.470 L 351.059 79.996 352.433 82.696 C 353.606 85.000,354.131 85.583,356.004 86.666 C 362.838 90.615,362.785 90.482,362.773 103.600 C 362.762 115.355,362.501 116.139,357.800 118.486 C 350.407 122.178,350.891 117.207,351.203 186.200 L 351.462 243.400 352.531 247.179 C 353.994 252.351,353.943 255.329,352.293 261.200 L 351.000 265.800 351.000 347.800 C 351.000 425.862,350.965 429.877,350.281 431.394 C 349.886 432.271,348.086 434.456,346.281 436.251 C 337.173 445.307,334.858 447.871,333.691 450.200 C 332.354 452.865,331.556 453.732,329.835 454.387 C 328.453 454.912,73.262 454.975,69.482 454.451 C 66.497 454.036,65.315 453.133,63.626 449.973 C 62.865 448.549,61.363 446.599,60.259 445.601 C 57.962 443.524,55.449 441.015,52.600 437.951 C 51.500 436.768,49.705 435.260,48.610 434.600 C 46.100 433.086,44.915 431.328,44.622 428.680 C 43.919 422.331,43.617 411.549,43.973 405.529 C 44.186 401.938,44.468 393.240,44.600 386.200 C 44.949 367.560,44.509 365.517,39.102 360.679 C 34.832 356.857,34.800 356.745,34.800 345.772 C 34.800 334.765,34.946 334.358,39.800 331.858 C 43.609 329.897,44.968 328.111,45.849 323.911 C 46.393 321.322,46.432 307.526,46.203 199.000 C 46.051 126.991,46.094 74.511,46.309 70.926 C 46.853 61.851,46.890 61.820,58.063 61.238 C 67.418 60.750,67.861 60.604,71.600 56.779 C 75.410 52.881,75.817 52.677,80.400 52.373 C 82.490 52.235,137.210 52.139,202.000 52.161 L 319.800 52.200 321.600 53.118 " stroke="none" fill="#ececec" fill-rule="evenodd"></path><path id="path7" d="" stroke="none" fill="#f8fc100" fill-rule="evenodd"></path><path id="path8" d="" stroke="none" fill="#f8fc100" fill-rule="evenodd"></path></g></svg>