<?xml version="1.0" encoding="utf-8"?>
<!-- Generator: Adobe Illustrator 28.1.0, SVG Export Plug-In . SVG Version: 6.00 Build 0)  -->
<svg version="1.1" id="svg" xmlns="http://www.w3.org/2000/svg" xmlns:xlink="http://www.w3.org/1999/xlink" x="0px" y="0px"
	 viewBox="0 0 400 391.8" style="enable-background:new 0 0 400 391.8;" xml:space="preserve">
<style type="text/css">
	.st0{fill-rule:evenodd;clip-rule:evenodd;fill:#E0394C;}
	.st1{fill-rule:evenodd;clip-rule:evenodd;fill:#141B1B;}
	.st2{fill-rule:evenodd;clip-rule:evenodd;fill:#F8D8B4;}
	.st3{fill-rule:evenodd;clip-rule:evenodd;fill:#7CBCCC;}
	.st4{fill-rule:evenodd;clip-rule:evenodd;fill:#F4E7E6;}
	.st5{fill-rule:evenodd;clip-rule:evenodd;fill:#8C3C54;}
	.st6{fill-rule:evenodd;clip-rule:evenodd;fill:#3C3444;}
</style>
<path class="st0" d="M176.7,160.4l7.1-3.5c0,0,3.6-4.3,3.7-4.4s2.3-3.1,2.3-3.1l7.2-0.5h6l3.3,4.4l3.4-0.5l2.6-2.8l3.6,3l4.3,5.3
	l1.5,0.9l2.1-3.4l4.4,5.1l7.6,6.5l8.2,5.8l2.4,17.9l15.8-1.6l-0.3-14l1.8-2.1l4.6,0.5l4.9,4.3l1,3.6l-0.7,12.9l0.2,1.8l-2.5,0.8
	l-3.8,0.4l-1.2-1.1c0,0-1-4.1-1-4.3s-2.5-2.6-2.5-2.6l-1.6,1.2l-0.5,6.8l-7.2,0.6l-20.9,4.5l3.3,10.7l-1.4,21.7l8.8,12.5l11.4-1.6
	l2.6,7.2l-0.2,9.5l-4.1,3.2l-8.2,3.3l-5.8-1.7c0,0-5.5-13.7-5.9-13.5c-0.5,0.2-2.7,4.4-2.7,4.4l-11.5-3.9l-4.5-3.9l-9.9,1l0.1,6.6
	L198,260l-1.4,1.9l11,1.6l5.3,4.3l0.9,12.3l-16.9,0.8l-1.8-4.9l-2.9-2.1l1-7l3.2-1.1l-0.2-2.5l-7.6-0.9l-3.7-7.2l-11,1.2l-10.2-6.5
	l-23.2,4.3l-1.9-9.1l-4.6-10.2l10.4-8.9l-2.2-4.2l-6.4-0.3l-4.9-5.2l-3.6-4.1l-0.6-22.3l10.6-5l4.4-3.1l3.6,1.6l3.5,20.2l5.3-4.2
	l0.2-19L176.7,160.4z"/>
<path class="st1" d="M196.6,202.2l0.9-3.9h0.9l1.3,3.3l2.2,1.6l1.8-0.6l1.2-1.3l0.7-1.6l-0.3-2l-1.2-1.1c0,0-1.8-0.3-1.9-0.2
	s-1.1,0-1.1,0l0.8-1.2h8.9l2.2,3.1l2.5,0.5c0,0,1-0.5,1.3-0.7c0.3-0.2,1.6-2.9,1.6-2.9s-1.6-1.7-1.6-1.7s-2.6-1.2-2.6-1.2l-0.3-0.9
	l0.3-1l3-0.4h2.4l2.4,2.8l2.7,2.8l0,3.6l-0.9,1.4c0,0-3.7,0.3-3.9,0.3c-0.2,0-2.4,0.4-2.4,0.4l-1.3,1.3l-1.1,1.9l-4.3,0.5l-2,1.3
	l-1.5,2.1l-3,0.9h-3.7l-3.2-0.9l-0.8-4.8L196.6,202.2z"/>
<path id="path8" class="st2" d="M189,147.1c-0.4,0.8-1.4,1.8-2.2,2.2s-1.7,1.4-2.1,2.1c-0.4,0.8-1.4,1.7-2.2,2.2
	c-0.8,0.4-1.5,1.1-1.5,1.4c0,0.7-1.2,2-2.9,2.9c-0.6,0.4-0.9,0.6-0.6,0.6c1.2-0.1,1.6,0,1.4,0.5c-0.1,0.2-0.6,0.3-1,0.2
	s-0.7-0.1-0.6,0.1c0.4,0.7,2.3,0.7,3.6,0c0.7-0.4,1.8-0.7,2.5-0.7c1.4,0,2.2-0.8,2.5-2.5c0.2-1.2,0.4-1.4,1.9-1.7s1.7-0.4,2-2
	l0.3-1.7h6.2h6.2l0.3,1.7c0.4,1.9,0.9,2.1,5.2,2.2c3.3,0.1,4.1-0.5,3.8-2.5c-0.2-1.4-1.2-3.1-1-1.8c0.2,1.4,0,1.6-2.1,1.6
	c-2.5,0-3.4-0.5-2.8-1.4c0.4-0.6,0.2-0.8-0.8-1.5c-0.7-0.4-1.5-1.4-1.8-2.1l-0.6-1.3h-6.5h-6.5L189,147.1 M202.9,146.9
	c0.1,0.6-0.4,0.7-6.6,0.7c-6.6,0-7.5-0.2-6.4-1.3C190.6,145.6,202.8,146.2,202.9,146.9 M186.9,151c0,0.6-0.8,0.8-1.3,0.3
	c-0.4-0.4,0.5-1.4,1-1.1C186.8,150.3,186.9,150.6,186.9,151 M183,154.6c0,0.7-1.1,1.3-1.3,0.7c-0.1-0.3-0.1-0.7,0-0.8
	C182.1,154.1,183,154.2,183,154.6 M203.1,169.9c-0.4,0.2-0.4,0.4-0.1,0.6c0.7,0.4,0.6,9-0.1,9.6c-0.9,0.7-1.1-0.8-0.9-5.9
	c0.1-2.4,0.1-4.3,0-4.3c-1.4,0-1.6,0.9-1.6,5.2c0,4.6-0.5,6.2-1.8,6.2c-0.7,0-1.4,0.8-2.3,2.6l-0.6,1.3H191c-4.5,0-4.7,0-5.8,1.1
	l-1.2,1.1l0.9,1.1c0.5,0.6,1.1,1.1,1.4,1.1c0.2,0,0.8,0.2,1.1,0.3c3.5,1.7,3.6,1.7,6.5,1.5c3.4-0.2,4-0.6,4.3-2.7
	c0.2-1.4,0.4-1.5,1.5-1.5c1.6,0,2.6-1,2.6-2.6c0-1.2,0.7-1.7,2.6-1.7c1.2,0,1.7-2,1.7-7.4C206.5,169.9,205.6,168.3,203.1,169.9
	 M199.3,183.2c0.1,0.2-0.1,0.6-0.4,0.9c-0.6,0.5-1.3,0-1.3-0.9C197.5,182.8,199,182.8,199.3,183.2 M195,187.1c0.6,0.2,0.6,0.3,0,1
	c-1.3,1.4-10.3,0.6-9.4-0.8C185.8,186.8,193.9,186.6,195,187.1 M214,195.2c-0.3,0.4-0.3,0.7,0.2,1.1c0.6,0.5,0.6,0.5,0.2-0.1
	c-0.6-0.8-0.2-1.3,0.6-0.6c0.6,0.4,0.6,0.4,0.1-0.2C214.6,194.5,214.6,194.5,214,195.2 M201.9,198.8c-0.7,0.3-0.6,1.1,0.2,1.8
	c0.6,0.5,0.6,0.5,0.1-0.1c-0.4-0.6-0.4-0.8-0.1-1.3C202.7,198.5,202.7,198.5,201.9,198.8 M225.6,202.7c-1,1-1,1.2-1,5.3
	c0,2.4-0.2,4.6-0.4,5.1c-0.4,0.7,0.5,2.4,1,1.9c0.8-0.9,1-2.5,1-6.8c0-4.7,0-4.9,0.8-4.9c0.5,0,0.8,0.3,0.8,0.7
	c0,0.9,1.6,2.7,2.9,3.2c1.3,0.5,1.5,5,0.3,5.3c-2.1,0.7-3.9,2.8-3.1,3.5c0.1,0.1,0.4-0.2,0.6-0.8s1.1-1.5,2-2c2.3-1.4,2.3-7.2,0-7.8
	c-0.4-0.1-0.9-0.5-1-0.9c-0.3-0.7-1-1.5-2.1-2.4C226.8,201.8,226.5,201.9,225.6,202.7 M197,211.5c-0.9,0.5-0.9,3.9-0.1,6.8l0.5,2
	v-4.4c0-4.8,0.5-5.7,1.8-3.1c0.8,1.5,1.6,2.2,2.6,2.2c0.7,0,1.5,1.1,1.5,2.2c0,1.4,1,2.3,1.5,1.3s-0.4-3-1.9-4.2
	c-0.6-0.4-1.4-1.2-1.9-1.7C199.4,211.2,198.3,210.8,197,211.5 M121.5,214.1c0.3,0.5,1,1.1,1.5,1.3c0.6,0.2,0.8,0.3,0.6,0.1
	c-0.2-0.2-0.9-0.8-1.5-1.3C121,213.4,121,213.4,121.5,214.1 M198.5,221.3c0.1,0.2,0.4,0.4,0.7,0.4s0.8,0.5,1.3,1.1
	c0.7,0.8,0.9,0.9,0.9,0.4c0-0.4-0.5-1-1.1-1.5C199.1,220.9,198.1,220.7,198.5,221.3 M207.3,223.8c-0.2,1.1-4.2,1.5-5.3,0.6
	c-0.5-0.4-0.6-0.4-0.4,0.1c0.1,0.4,0.9,0.6,2.9,0.7c3,0.1,4.4-0.5,4-1.6C208,222.6,207.4,222.7,207.3,223.8 M129.6,233.3
	c0.2,4.4,0.9,5.9,2.8,6.3c1,0.2,1.1,0.4,1.3,2.8c0.3,3.3,0.8,4.4,2.7,5.4c2,1.1,2,0.4,0-1.7c-1.5-1.6-1.7-2-2.2-5
	c-0.2-1.1-0.7-1.9-1.6-2.8c-1.2-1.1-1.3-1.4-1.3-3.5c0-1.6-0.2-2.6-0.7-3.3c-0.4-0.6-0.8-1.3-0.9-1.6
	C129.5,229.6,129.5,231.1,129.6,233.3 M137.9,253.7c0,1,1.5,2.5,2.6,2.5c0.6,0,0.6-0.1-0.3-0.6c-0.6-0.3-1.3-1.1-1.7-1.7
	C138,253,137.9,253,137.9,253.7 M141.6,256.5c0.2,0.2,0.6,0.8,0.8,1.5s0.9,1.4,1.7,1.8s1.6,1.2,2.1,2.4c0.5,1.1,1.2,1.8,1.7,1.9
	c0.7,0.1,0.7,0-0.2-0.8c-0.6-0.5-1.3-1.5-1.5-2.3c-0.3-0.8-1-1.9-1.5-2.4c-0.6-0.6-1.2-1.3-1.5-1.7c-0.3-0.3-0.8-0.6-1.2-0.6
	C141.5,256.2,141.4,256.4,141.6,256.5 M106.2,262c0.4,0.4,1,1.6,1.3,2.7c0.4,1.1,1.2,2.4,1.8,3c1,0.9,1.1,1.3,1.1,3.4
	c0,2.5,0.3,3.1,2.9,4.9c1.2,0.9,1.3,2.1,0.2,4c-0.9,1.6-0.1,1.6,1.3,0.1c1.7-2,0.7-5.7-1.6-5.7c-1.2,0-1.7-1.1-1.7-3.8
	c0-2.9-0.3-3.4-2.4-4.3c-0.7-0.3-1.1-1-1.5-2.2c-0.3-1.1-0.9-2-1.4-2.3C105.6,261.2,105.6,261.2,106.2,262 M149.7,264.5
	c1.3,0.4,2.4,0.4,1.4,0c-0.4-0.2-1.1-0.3-1.6-0.3C148.9,264.1,148.9,264.2,149.7,264.5"/>
<path id="path0" class="st3" d="M100.5,98c-0.1,0.3-0.2,2.2-0.2,4.1v3.5h-2h-2v6.1c0,5.5-0.1,6.1-0.7,6.1c-0.4,0-1,0.1-1.3,0.1
	s-1,0.1-1.5,0.2c-0.5,0-0.9,0.2-0.8,0.4c0,0.2,0,2.9,0,6.1v5.8l-1.9,0.1l-1.9,0.1l-0.1,7.9l-0.1,7.9h-1.7c-0.9,0-1.8,0-2,0
	s-0.2,0.1-0.1,0.3s0.1,0.5-0.1,0.6s-0.4,7.7-0.4,19.1v18.9l2.5,0.1c3.2,0.1,3.8,0.8,3.8,3.9c0,2.1,0.1,2.2,2,4s2,1.9,2,4
	c0,2.2,1,4.2,2.1,4.2c0.6,0,1.7,1.2,2.3,2.4c1.4,2.7,4.6,1.5,3.7-1.3c-0.2-0.7-0.4-1.3-0.4-1.3s-0.4-0.4-0.8-0.9
	c-0.8-0.9-0.8-1.5-0.8-29.5v-28.6h1.3c2.8,0,2.6,1,2.6-14.6v-14.1h1.7c2.6,0,2.6-0.1,2.5-8.7l-0.1-7.6l-3.8-0.1
	C101.4,97.5,100.7,97.6,100.5,98 M188.6,145.6c-0.3,0.4-0.5,1-0.5,1.2c0,0.6-0.8,1.3-2.2,1.9c-0.9,0.4-1.4,1-1.9,2.1
	c-0.3,0.9-0.9,1.6-1.3,1.8c-1.7,0.5-2.3,1.1-2.7,2.2c-0.3,0.8-0.8,1.5-1.9,2c-2.3,1.2-2.6,1.9-1.3,3.2c0.9,0.9,1.2,1,2,0.6
	c1-0.4,0.9-0.5-1.1-1.1c-0.9-0.3-0.7-1.3,0.2-1.6c1.2-0.4,3.1-2.2,3.1-2.9c0-0.4,0.6-1,1.5-1.5c0.8-0.4,1.8-1.4,2.2-2.2
	s1.4-1.7,2.1-2.1c0.8-0.4,1.7-1.4,2.2-2.2l0.8-1.5h6.5h6.5l0.6,1.3c0.9,2,2.8,3,5.5,3c2.2,0,2.3,0,2.7,1.2c0.5,1.4,1.1,1.2,0.8-0.3
	c-0.3-1.6-1.1-2.1-3.5-2.1c-2.9,0-3.9-0.5-4.7-2.2l-0.7-1.5l-7.3-0.1C189.4,144.8,189.1,144.9,188.6,145.6 M307.5,150
	c-0.5,0.7-0.6,2.1-0.6,7.2c0,6.9,0,6.9-1.9,7.9c-0.7,0.4-1.7,1.4-2.2,2.3c-0.5,0.9-1.4,1.7-2.1,2s-1.5,1.1-1.9,1.8
	c-1,1.9-1.7,2.2-4.3,2.2c-2.4,0-4.1,1-4.1,2.2c0,1.5-1.9,2.1-6.4,2.1h-4.5l-1.4,2l-1.4,2l-2.7-0.2c-3.4-0.3-4.4,0.6-4.4,4
	c0,3.9,2.2,5.3,3.5,2.4c1.1-2.4,1.5-2.6,8.5-2.6c6.4,0,8-0.3,8-1.7c0-1.9,1.8-2.6,6.4-2.6c5,0,4.9,0,6.3-2.2c1-1.7,1.1-1.7,3.4-1.7
	c2.9,0,3.7-0.4,4.5-2.1c0.4-0.8,1.2-1.6,2-2c2-0.9,2.1-1.5,2.1-8.2c0-6.2-0.3-7.3-1.8-7.3c-1.4,0-2.5-2.1-2.5-4.6
	C310.1,149.4,308.9,148.1,307.5,150 M201.7,169.5c-0.3,0.4,0.6,0.8,1.2,0.5c0.3-0.1,0.5-0.3,0.5-0.5
	C203.4,169.1,202,169.1,201.7,169.5 M213.1,194.8c-0.5,1,0.4,2.6,1.4,2.6c1.1,0,2.3-1.5,1.7-2.2C215,193.5,213.8,193.4,213.1,194.8
	 M215.1,196.1c-0.3,0.4-0.6,0.4-1,0.1c-0.4-0.3-0.4-0.6-0.1-1c0.3-0.4,0.6-0.4,1-0.1S215.5,195.7,215.1,196.1 M201.2,198.4
	c-0.8,0.8-0.9,1.1-0.5,2c1.1,2.3,4.1,1.2,3.3-1.2C203.6,197.6,202.3,197.3,201.2,198.4 M203,200.3c-0.6,0.7-1.6,0.2-1.6-0.8
	c0-0.7,0.9-1,1.5-0.3C203.4,199.6,203.4,199.8,203,200.3 M227.9,202.7c0.6,0.6,1.1,0.9,1.2,0.9c0.3-0.3-1.1-1.9-1.7-1.9
	C227,201.7,227.1,202,227.9,202.7 M231.5,206.3c0.2,0.4,0.4,1.9,0.5,3.3l0.1,2.6l-1.6,1c-0.9,0.6-1.8,1.4-2,1.9
	c-0.9,2.4-3.9,2.2-3.9-0.2c0-0.8-0.3-0.9-1.8-0.8c-3.3,0.4-1.7,3.6,1.9,4c2.5,0.3,3.5-0.2,4.4-1.7c0.7-1.4,1.5-2.3,2-2.3
	c2.3,0,3.3-5.4,1.5-7.5C231.6,205.5,231,205.3,231.5,206.3 M197,210.7c-0.9,1-0.8,1.3,0.3,0.8c0.7-0.3,1.2-0.3,2,0
	c1.5,0.7,1.6,0.3,0.2-0.7C198.1,209.8,197.8,209.8,197,210.7 M213.7,210.9c-1.6,1.9-0.5,2.9,3,2.9c2.5,0,3.4-0.3,3.7-1.2
	C221,210.2,215.5,208.9,213.7,210.9 M121,212.7c0.3,0.9,3.1,3.4,3.3,3.1c0.1-0.1-0.7-1-1.8-2.1C121.1,212.3,120.7,212,121,212.7
	 M209.4,215.2c-1.6,1.8,0.3,3.6,2.1,2.1c1.1-0.9,1.3-1.9,0.5-2.6C211.2,214,210.3,214.2,209.4,215.2 M196,218c0,2.4,0.6,3.7,2,4.4
	c0.6,0.3,1.4,1.1,1.9,1.8c2.1,3,6.7,3.7,8.3,1.3c0.5-0.8,0.3-1.1-0.5-0.6c-1.6,0.8-5.9,0.5-6.3-0.5c-0.4-1.1-1.8-2.6-2.3-2.6
	c-0.7,0-2.1-1.6-2.1-2.5c0-0.5-0.3-1.4-0.6-2L196,216V218 M204.7,219.1c-0.6,1.3,0.1,2.3,2.3,3.5l1.6,0.8l-0.2-2.2
	c-0.2-2.6-0.2-2.6-1.9-2.8C205.3,218.1,205.1,218.2,204.7,219.1 M129.4,229.5c0.7,1.6,1.6,2.9,1.8,2.7s-1.8-3.8-2.1-3.8
	C129,228.4,129.1,228.9,129.4,229.5 M133.8,239.9c0.3,0.7,0.6,1.9,0.6,2.5c0,1.2,0.6,2.4,1,2c0.3-0.3-0.6-4.8-1-5.3
	C133.5,238.1,133.3,238.6,133.8,239.9 M137.1,246.8c0,0.2,0.2,0.5,0.4,0.6s0.4,1.4,0.4,2.8c0,3.9,1.1,5.4,4.4,6.2
	c1.5,0.4,1-0.3-0.9-1.3c-2-1-2.1-1.2-2.4-4.6c-0.1-1.8-0.5-3-0.9-3.4C137.5,246.3,137.1,246.2,137.1,246.8 M146.1,260.7
	c0.8,2.3,5.5,5.1,6.6,4c0.2-0.2-2-1.4-2.7-1.4s-2.4-1.6-3.1-2.9C145.9,258.4,145.3,258.7,146.1,260.7 M105.8,263.2
	c0.5,1,1,2.3,1.3,2.8c0.2,0.5,0.7,1.1,1.1,1.3c0.6,0.3,0.6,0.2-0.1-1.2c-0.4-0.8-0.7-1.8-0.7-2.1c0-0.7-1.5-2.6-2-2.6
	C105.1,261.3,105.4,262.2,105.8,263.2 M201.3,276.3c-1.9,2.3-2.6,3-3.2,3c-1.9,0-4.1,2.2-4.1,4c0,1.6-0.1,1.9-0.9,1.9
	c-0.5,0-1.1,0.1-1.5,0.1c-1.2,0.1-1.6,0.7-1.6,2.4v1.7l-1.9,0.1l-1.9,0.1l-0.1,1.9l-0.1,1.9h-2h-2.1v-2v-2h-3h-3l0.1,2.4
	c0.1,2.3,1.6,4.3,3,4.3c0.2,0,0.6,0.5,0.9,1.2c0.3,0.7,1.2,1.7,2,2.3s1.5,1.2,1.6,1.5c0.7,1.7,2.8,2.9,4.9,2.9
	c2.3,0,2.9,0.4,4.6,2.9c0.6,0.9,1,1,3.2,1c2.6,0,2.6,0,5,2.8l1.2,1.5h12.4H227l1.2-1.3c0.7-0.7,1.5-1.7,1.8-2.2s0.8-0.9,1-0.9
	c2.9,0,2.8-7.6-0.1-8.3c-0.9-0.2-1.4-0.7-1.9-1.9c-0.4-0.9-1-1.7-1.4-1.8c-2-0.6-2.7-1.7-2.7-4.1c0-2.3,0-2.3-1.2-2.3s-1.2,0-1.2-2
	c0-1.3-0.2-2-0.5-2s-0.8-0.1-1.1-0.1s-1-0.1-1.5-0.2c-0.8-0.1-0.9-0.2-0.9-2.8v-2.7h-2.3c-2.6,0-3.3-0.5-4.5-3.2l-0.7-1.5h-4.4h-4.4
	L201.3,276.3"/>
<path id="path1" class="st4" d="M190,146.3c-1.1,1.1-0.2,1.3,6.4,1.3c6.2,0,6.7-0.1,6.6-0.7C202.8,146.2,190.6,145.6,190,146.3
	 M185.8,150.5c-0.5,0.6-0.2,1,0.6,1c0.6,0,0.7-1,0.2-1.3C186.4,150.1,186,150.2,185.8,150.5 M205.9,150.6c-0.3,0.9,0.6,1.3,2.9,1.3
	c2,0,2.6-0.4,2.2-1.5C210.7,149.7,206.2,149.8,205.9,150.6 M181.7,154.5c-0.1,0.1-0.1,0.5,0,0.8c0.2,0.6,1.3,0,1.3-0.7
	C183,154.2,182.1,154.1,181.7,154.5 M177.5,158.6c-0.4,0.3-0.4,0.4,0.2,0.6c0.4,0.1,0.9,0.1,1.1-0.1
	C179.3,158.5,178.2,158.1,177.5,158.6 M100.5,167.1c-0.7,0.7-0.2,32.6,0.5,33.4c0.4,0.5,0.8,0.9,0.8,1c0,0,0.2,0.6,0.4,1.3
	c0.8,2.8-2.4,4-3.7,1.3c-0.6-1.2-1.8-2.4-2.3-2.4c-1.1,0-2.1-2-2.1-4.2c0-2.1-0.1-2.2-2-4s-2-1.9-2-4c0-3-0.7-3.8-3.7-3.9l-2.4-0.1
	l-0.1,14.3c-0.1,17.1-0.3,16.1,2.3,16.1h2v7.9c0,4.4,0,8.1,0,8.2c0,0.2,0.8,0.3,1.9,0.3h2v3.4c0.1,5.2-0.3,4.7,2.7,4.8h1.6v6.1v6.1
	h2h2v3.5c0,4.6,0.1,4.7,2.4,4.7c3.1,0,4.4,0.8,5.1,3c0.4,1.3,0.8,2,1.5,2.3c2.1,0.9,2.4,1.4,2.4,4.3c0,2.7,0.5,3.8,1.7,3.8
	c3.2,0,3.2,5.8,0.1,6.8c-0.7,0.2-0.8,0.6-0.8,2.2v2h2.1h2.1v1.9c0,1,0,2,0,2.2s0.8,0.3,1.9,0.3h2v2v2h1.9h1.9l0.3,2.1l0.3,2.1
	l1.9,0.1l1.9,0.1v1.9v1.9h2c2.1,0,2.1,0,2,2.5l-0.1,1.5h2.2h2.2v1.9c0,1,0,2,0,2.1s0.8,0.3,1.8,0.3c2.2,0.1,2.1,0,2.1,2.2v1.8h2.1
	h2.1l0.1,2.1l0.1,2.1l1.9,0.1l1.9,0.1v1.9v1.9h2h2v1.7c0,2.4,0.4,2.6,4.6,2.6c3.5,0,3.6,0,3.7,0.9c0.1,3.1-0.3,2.8,4.2,3l4,0.1v1.7
	c0,0.9,0,1.8,0,1.9c0,0.2,4.5,0.3,10.1,0.3h9.9l0.1,2.1l0.1,2.1l16.2,0.1l16.2,0.1v-2.2v-2.2h4.1c2.3,0,4.1-0.1,4.1-0.3
	c0-0.2,0-1,0-2v-1.7h2h2v-1.9v-1.9l2.1-0.1l2.1-0.1l0.1-4l0.1-4h1.9h1.9v-8.2v-8.2h-2h-2v-2v-2h-2.2h-2.2V296v-2.2l-1.3,0.1
	c-2.6,0.1-2.6,0.1-2.6-1.9v-1.9l-2.9-0.1l-2.9-0.1v2.3c0,2.4,0.7,3.5,2.7,4.2c0.4,0.1,1,0.9,1.4,1.8c0.5,1.2,1,1.6,1.9,1.9
	c2.9,0.7,2.9,8.3,0.1,8.3c-0.3,0-0.7,0.4-1,0.9s-1.1,1.5-1.8,2.2l-1.2,1.3h-12.4h-12.4l-1.2-1.5c-2.4-2.9-2.4-2.8-5-2.8
	c-2.2,0-2.5-0.1-3.2-1c-1.7-2.5-2.3-2.9-4.6-2.9c-2.2,0-4.2-1.2-4.9-2.9c-0.1-0.2-0.8-0.9-1.6-1.5s-1.7-1.6-2-2.3
	c-0.3-0.7-0.7-1.2-0.9-1.2c-1.5,0-2.9-2-3.1-4.2c-0.1-2.1-0.2-2.3-1.2-2.4s-1.1-0.2-1.1-2.1c0-2.1-0.6-2.6-2.8-2.3
	c-0.9,0.1-0.9,0-1-1.9l-0.1-2.1h-1.9h-1.9l-0.1-1.9l-0.1-1.9l-2-0.1l-2-0.1l-0.1-2l-0.1-2l-1.8-0.1l-1.8-0.1l-0.1-1.8l-0.1-1.8
	l-2.1-0.1l-2.1-0.1V267c0-2.1,0-2.1-1.1-2.1c-3,0-5-0.9-5.9-2.7c-0.6-1.1-1.4-2-2.1-2.3c-0.8-0.4-1.4-1-1.7-1.8
	c-0.5-1.4-0.9-1.8-2-1.8c-1.6,0-2.5-1.5-2.6-4.7l-0.1-2.9l-1.4-0.8c-1.8-1-2.3-2-2.6-5.4c-0.2-2.3-0.3-2.6-1-2.6c-1.7,0-3-2.2-3-5.1
	c0-1.5-0.2-3.5-0.4-4.6s-0.4-3.8-0.4-5.9l-0.1-4h-2.1h-2.1v-2.1c0-2-0.1-2.1-1.3-2.5c-2.1-0.7-2.4-1.7-2.6-7l-0.1-4.8h-1.9h-1.9
	l-0.1-6l-0.1-6l-2.1-0.1l-2.1-0.1v-6.1v-6.1h-2h-2l-0.1-6.2l-0.1-6.2h-3.8C102.4,166.9,100.6,167,100.5,167.1 M202.1,170.9
	c-0.4,0.9-0.3,8.5,0.1,9.1c0.8,1.3,1.3-0.6,1.1-5C203.2,170.8,202.7,169.2,202.1,170.9 M197.5,183.2c0,0.9,0.7,1.4,1.3,0.9
	c0.3-0.3,0.5-0.7,0.4-0.9C199,182.8,197.5,182.8,197.5,183.2 M185.5,187.2c-0.9,1.4,8.1,2.2,9.4,0.8c0.6-0.7,0.6-0.8,0-1
	C193.9,186.6,185.8,186.8,185.5,187.2 M214.2,195.4c-0.1,0.2-0.1,0.5,0.2,0.7c0.6,0.4,1-0.1,0.5-0.6
	C214.6,195.1,214.4,195.1,214.2,195.4 M202,199.4c-0.3,0.5,0.1,1.2,0.6,1.2c0.2,0,0.4-0.4,0.4-0.8C203,198.9,202.4,198.7,202,199.4
	 M226.1,208.2c0,4.7-0.3,6.2-1.3,6.9c-0.7,0.4,0.5,1.5,1.7,1.5c0.9,0,1.1-0.2,1.3-1.2c0.3-1.3,1.4-2.4,2.7-2.8
	c1.4-0.4,1.5-4.9,0.1-5.5c-1.3-0.5-2.9-2.3-2.9-3.2c0-0.5-0.3-0.7-0.8-0.7C226.2,203.3,226.1,203.5,226.1,208.2 M197.5,216
	c0,4,0.1,4.5,0.7,4.7c1.2,0.4,2.6,1.3,2.9,1.8c0.9,2.1,0.9,2.1,3.5,2.1c2.7,0,4.1-1.7,2-2.3c-1-0.3-2-1.5-2.2-2.5
	c-0.1-0.4-0.3-1.1-0.6-1.5c-0.2-0.4-0.5-1.2-0.6-1.8s-0.5-1.2-0.9-1.3c-1.7-0.5-2.4-1.1-3-2.3C198.1,210.1,197.5,211.1,197.5,216"/>
<path id="path2" class="st5" d="M188.1,144.6c-0.3,0.3-0.6,1.1-0.8,1.7c-0.2,0.8-0.7,1.2-1.9,1.7c-1.2,0.4-1.7,0.8-1.9,1.6
	c-0.3,1.4-1.5,2.7-2.4,2.7c-0.4,0-1,0.2-1.2,0.5c-0.3,0.3-0.5,0.8-0.5,1.2c0,0.8-1.4,2.2-2.2,2.2c-1.2,0-2.1,1.5-2.1,3.5v1.9l-3,0.1
	c-2.9,0.1-3.1,0.2-3.5,1.2c-0.9,1.9-2.3,2.7-4.8,2.7c-2.4,0-2.6,0.1-3.9,2.3c-0.4,0.7-1.3,1.5-1.9,1.7c-1.6,0.5-1.9,1.4-1.9,4.2
	c0,2.4-0.8,4-2.1,4c-1.6,0-1.8,1.2-1.8,11.9v10.1l1.1,1c1.6,1.5,2,2.5,2,4.7c0,3,0.4,4.4,1.2,4.4c1.1,0,2.7,1.5,3.1,2.9l0.5,1.4h3
	c3.3,0,4.3,0.6,4.7,2.8c0.2,1.2,1.2,1.5,4.6,1.5c2.3,0,3.2,0.6,3.7,2.6l0.3,1.1l3.8,0.1l3.8,0.1l0.5-1.5c0.8-2.5,2-3.1,3.8-1.9
	c1.5,1,0.4,2.8-2.4,4c-0.6,0.3-1.1,0.8-1.1,1.2c0,2.5-6.6,3.6-8.5,1.4c-0.5-0.6-0.9-1.4-0.9-1.7c0-0.9-0.8-1.1-3.5-1.1
	c-2.5,0-4.7-1.3-4.7-2.7c0-2.1-5.1-2.4-6.2-0.4c-1.1,1.9-1.8,2.6-3.3,3.2c-1,0.4-1.5,0.9-1.5,1.4c0,0.9-1.3,2.4-2.1,2.4
	c-1.1,0-1.8,1.6-1.8,3.8s0.4,2.9,2.3,3.6c0.7,0.3,1.4,1,1.7,1.7s0.9,1.4,1.4,1.7c1.3,0.6,2.1,1.4,3.1,3c0.5,0.8,1.2,1.5,1.5,1.5
	c0.6,0,1.7,1.1,2.4,2.4c0.5,1,1.7,1.7,4.3,2.4c1.6,0.4,2.1,0.8,2.7,2c1,1.8,1.3,1.9,4.5,2.2c2.5,0.2,2.6,0.3,3.7,1.9
	c0.7,1,1.7,1.9,2.5,2.3c2,0.8,4.8,3.6,5.7,5.5c0.9,2.1,1.6,2.5,4.4,2.5c1.7,0,2.4,0.2,3,0.8l0.8,0.8l-1.1,1.1
	c-0.6,0.6-1.3,1.1-1.6,1.1c-2.1,0-2.1,7.7,0.1,8.4c2.2,0.7,3,3.2,1.7,4.8c-0.6,0.8,0,0.6,1.3-0.3c1.9-1.3,0.8-4.3-2-5.5
	c-2.3-0.9-1.9-5.6,0.5-6.8c0.9-0.5,1.7-1.3,2.1-2.3l0.7-1.5h4.6h4.6l1,1.6c0.5,0.9,1.4,1.7,1.9,1.8c2,0.5,2.3,1.4,1.8,4.9
	c-0.6,4.2,0.2,6.5,1,3.3c1.1-4.4,0.5-8.8-1.4-8.8c-0.6,0-2.8-2-2.8-2.5c0-1.3-1.8-1.8-6.4-1.8c-4,0-4.6-0.1-4.9-0.7
	c-0.7-1.4,0.8-2.4,3.5-2.4c3.5,0,4.5-1.1,4.1-4.7c-0.3-2.9-0.8-4-1.7-4c-1,0-2.1-1.1-2.6-2.5c-0.3-0.8-0.8-1.3-1.6-1.6
	c-1.7-0.6-2.1-1.3-2.1-3.6c0-3.4-0.4-4.4-1.5-4.6c-1.5-0.3-2.7-1.5-2.9-2.8l-0.1-1.2l-3.3-0.1c-4.9-0.2-6.4-1.3-4.5-3.6
	c2.1-2.5,7.1-1.6,8.4,1.5c0.3,0.7,1,1.4,1.7,1.7c1.5,0.6,2.7,1.9,2.7,2.8c0,0.4,0.3,0.8,0.7,1c2,0.7,3.2,2.6,3.2,4.9
	c0,2.4,0.1,2.6,2.3,3.9c0.7,0.4,1.5,1.3,1.7,1.9c0.6,1.7,1.4,1.9,5.9,1.9h4.1l1,2.1c1.3,2.6,1.8,3,5.4,3c3.1,0,3.8-0.4,3.8-1.9
	c0-1.2,0.9-2.1,2.5-2.4l1.2-0.3l0.3-4.5c0.2-2.5,0.4-5.7,0.4-7.2c0-3,0.1-3.2,2.3-4.3c1.8-1,2-1.7,1.8-8.4c-0.2-5.4-0.7-7-2.4-8.1
	s-1.5-3.3,0.3-3.3c3.1,0,3.8-8.8,0.8-11.7c-0.5-0.5-1.1-0.9-1.2-0.9c-0.6,0-2.8-2.6-2.8-3.2c0-0.7,1.6-2.1,2.7-2.4
	c0.4-0.1,1-0.9,1.4-1.7s1.2-1.7,1.6-1.9c2.1-1.1,2.1-0.8,2.1-9.9V175l-1.3-1.3c-0.7-0.7-1.5-2-1.7-2.8c-0.3-1.2-0.6-1.6-1.9-2
	c-1.7-0.6-2.2-1.1-2.2-2.6c0-1.3-1.8-2.1-3.4-1.5c-3.6,1.1-4.4,0.4-4.4-4c0-3.6-0.2-4.1-1.9-4.5c-1.2-0.3-1.6-0.6-2.2-2
	c-0.5-1.1-1.1-1.8-1.8-1.9c-1.4-0.3-1.9-0.8-2.4-2.5s-1-1.9-4.3-2c-2.5,0-3.9-0.8-3.9-2.1c0-1.7-0.5-1.8-8.7-1.8
	C190.1,144.1,188.5,144.2,188.1,144.6 M204.3,146.5c0.8,1.7,1.9,2.2,4.7,2.2c2.4,0,3.5,0.5,3.5,1.7c0,1.1,0.6,1.8,2.2,2.9
	c0.7,0.5,1.4,1.3,1.7,2c0.3,0.6,0.9,1.4,1.5,1.7c2.2,1.1,2.4,1.5,2.4,4.4c0,4.5,1.4,7.7,3.4,7.7h0.9v10.2c0,11.8,0,11.8-3.6,8.2
	c-2.1-2.1-2.4-2.1-3.8-0.3c-0.3,0.4-1.3,1-2.3,1.5c-1.5,0.7-3,2.3-3.5,3.8c-0.1,0.4-4.6,0.7-16.8,1.2l-5.4,0.2l-1.3-1.8
	c-1.2-1.7-3.5-2.6-3.5-1.4c0,0.2-0.5,0.9-1.1,1.6c-1.4,1.5-3.2,1.7-3.2,0.3c0-1.3-1.8-3-3.2-3c-1,0-1.1,0.1-1.1,1.1
	c0,1.4,1.7,3.2,3,3.2c0.7,0,0.9,0.2,0.9,1c0,0.9,2,3.3,2.8,3.3c0.2,0,0.8,0.6,1.3,1.4c0.5,0.8,1.5,1.8,2.2,2.2s1.6,1.3,2,2.1
	c0.4,0.7,1.5,1.8,2.3,2.4l1.6,1v2.7c0,3-0.7,3.9-2.8,3.9c-0.9,0-1.1-0.2-1.1-1.1c0-2.4-1.1-2.9-6.9-2.9H176v1.1
	c0,2.5,1.4,3.2,7.1,3.2h5.1l-0.1,1c-0.1,0.9-0.5,1.2-1.9,1.7c-2.2,0.7-3.1,1.5-3.1,2.4c0,2.1-5.3,2.2-6,0.2
	c-0.6-1.9-1.3-2.3-4.5-2.5c-3-0.2-3-0.2-3.6-1.6c-0.9-2-2.2-2.7-5.2-2.8c-2.6-0.1-2.6-0.1-3.1-1.5c-0.3-1.1-0.8-1.5-2.1-2.1
	l-1.7-0.8v-2.6c0-1.4-0.3-3.4-0.6-4.3c-0.9-2.4-0.8-13.6,0-14.8c1.8-2.6,3.3-0.4,3.3,5.1c0,4.6,0.7,6.2,3,6.2c0.7,0,1,0.2,1,0.9
	c0,1.4,1.7,3,3.1,3c1.1,0,1.2-0.1,1.2-1.1c0-1.4-1.7-3.2-3-3.2H164v-9.2V179l1-0.9c1.5-1.3,2.6-2.4,3.4-3.6c0.4-0.6,1.1-1,1.5-1
	c1.6,0,1.9,1,1.9,7.8c0,7.2,0.4,8.3,3.1,8.3h1.2v-7.4v-7.4l1.6-1.2c0.9-0.7,2-1.8,2.5-2.5c1.1-1.6,1.6-1.8,4.1-1.8
	c1.8,0,2-0.1,4-2.2l2-2.2l4.1,0.1l4.1,0.1l0.7,1.9c0.9,2.4,0.8,2.3,2.8,2.3c2.4,0,3.1-1,3.1-4.4c0-2.7-1.1-4.7-2.6-4.7
	c-0.3,0-1-0.7-1.5-1.6c-2.5-4-12.4-3.4-13.7,0.8c-0.2,0.7-0.6,0.8-3.7,0.8c-1.9,0-3.9,0.2-4.5,0.5c-0.9,0.4-1.1,0.3-2.1-0.6
	c-1.3-1.3-1-2,1.3-3.2c1.1-0.6,1.6-1.2,1.9-2c0.3-1.1,1-1.7,2.7-2.2c0.4-0.1,1-0.9,1.3-1.8c0.4-1.1,1-1.7,1.9-2.1
	c1.4-0.6,2.2-1.3,2.2-1.9c0-1.9,0.6-2,8.2-1.9l7.3,0.1L204.3,146.5 M221.8,154.2c-0.5,0.9-0.2,1.2,1.8,2.4c0.7,0.4,1.5,1.2,1.8,1.8
	s0.9,1.3,1.4,1.5c1.4,0.7,2.1,1.5,2.8,2.9c0.4,0.8,1,1.5,1.4,1.5c1.1,0.2,2.5,1.6,2.6,2.6c0.1,0.5,0.6,1.1,1.3,1.4
	c1.6,0.8,2.9,2,2.9,2.8c0,0.4,0.6,1,1.4,1.3c2.4,1.1,2.6,1.7,2.6,8.7c0,5.8,0.1,6.4,0.8,7c1.7,1.6,2,0.5,2-9v-8.7l-1.5-0.7
	c-2.2-1.1-2.5-1.5-2.5-4.2s-0.3-3.3-2.2-4.2c-0.6-0.3-1.4-1.2-1.8-1.8c-0.3-0.7-1.2-1.6-2-2s-1.8-1.4-2.3-2.4l-0.9-1.6h-4.7
	C222.7,153.5,222.2,153.6,221.8,154.2 M199.2,158.1c0.3,0.4,0.7,1.2,0.7,1.9c0.1,1,0.4,1.2,1.6,1.6c2.1,0.6,2.3,1,2.2,3.7
	c-0.1,2.9-0.9,3.8-2.3,2.6c-0.4-0.4-0.8-1-0.8-1.3s-0.3-1.5-0.6-2.7l-0.6-2.1h-5.3c-4.9,0-5.3,0.1-5.3,0.7c0,0.4-0.6,1.3-1.4,2
	c-3.1,2.7-12.3,1.4-12.3-1.8v-0.9h6.1c6.6,0,7.6-0.3,7.6-2.4c0-1.6,0.7-1.9,5.3-1.9C197.9,157.4,198.7,157.5,199.2,158.1
	 M227.6,167.3c0.2,1-0.6,1.8-1.7,1.8c-0.8,0-0.9-0.2-0.9-1.1C225,166.4,227.4,165.8,227.6,167.3 M231.5,170.8
	c0.7,0.9,1,3.2,1.2,10.3c0.2,7.8,0,8.4-2.5,8.4h-0.9v-9.3c0-5.1,0.1-9.5,0.3-9.6C230,170.2,231.1,170.3,231.5,170.8 M261.8,173.5
	c-0.7,0.7-0.8,1.3-0.8,8c0,8-0.3,8.8-2.4,7.6c-1.8-0.9-1.9-1.3-1.9-5.7c0-4.5-0.2-5-2.1-5.7c-0.4-0.1-1-0.8-1.4-1.5
	c-2.5-4.1-3.2-3-3.2,5.2c0,7.1-0.6,9-2.8,9c-0.5,0-1,0.5-1.4,1.5c-0.5,1-1.3,1.8-2.7,2.6l-2.1,1.2v2c0,2.1,1,4.1,2.1,4.1
	c0.3,0,0.7,0.4,1.1,0.8c1.8,2.6,4.7,3.1,4.7,0.9c0-0.7,1.3-2.1,1.9-2.1c0.3,0,1.2-0.7,2-1.6c1.4-1.6,1.5-1.6,4.7-1.9
	c3.9-0.3,4.1-0.5,4.3-4.5c0.4-4.9,3.5-4.2,3.5,0.8c0,3.5,0.6,4.1,4.4,4.1c4.5,0,5.8-3,4-9c-0.8-2.6-1.2-1.3-1.1,3.1
	c0.1,4.3,0.1,4.3-3.1,4.3c-2.8,0-3.1-0.4-3.1-3.4c0-2.5-1-4.5-2.2-4.5c-2,0-2.8-13.8-0.8-14.3c2.3-0.6,4.7,0,5.4,1.2
	c0.8,1.5,1.1,1.8,2.6,2.6c0.9,0.4,1.2,0.9,1.3,1.9c0.1,0.9,0.3,1.3,0.8,1.3c0.4,0,1,0.1,1.4,0.3c0.6,0.2,0.6,0.2,0.1-0.9
	c-0.3-0.6-0.8-1.7-1.2-2.3c-0.3-0.6-0.9-1.2-1.3-1.3c-0.9-0.2-2.5-1.8-2.5-2.5C270.1,172.6,263.5,171.8,261.8,173.5 M140.3,181.4
	c-0.5,0.2-1.1,0.9-1.4,1.6c-0.7,1.7-1.3,2.1-3.2,2.4c-2.4,0.4-3.5,0.9-4.1,2.1c-0.3,0.6-1.3,1.3-2.3,1.7c-2.7,1-2.7,1.2-2.7,12.5
	c0,11.5,0,11.4,1.9,12.4c0.8,0.4,1.8,1.4,2.2,2.3c0.4,0.8,1.2,1.7,1.8,1.9c1.4,0.5,2.4,1.5,2.4,2.3c0,1.2,1.5,1.9,4.1,1.9
	c2.8,0,3.9,0.6,4.2,2.3c0.6,2.9,5.2,2.8,7.4-0.2c0.8-1,2.4-2,3.7-2.1c1-0.1,1.2-0.4,1.5-1.8c0.3-1,0.9-2.2,1.9-3.1
	c1.3-1.3,1.6-2.5,0.7-2.5c-0.6,0-3.5-2.8-3.5-3.4c0-0.3-0.3-0.7-0.7-0.8c-2-0.7-3.2-2.6-3.2-4.8c0-2-0.6-3.6-1.3-3.6
	c-0.1,0-0.9-0.6-1.6-1.2l-1.4-1.2v-8.4c0-8.7-0.2-9.8-1.9-9.9c-0.1,0-1-0.2-1.8-0.3C141.9,181.2,140.8,181.2,140.3,181.4
	 M142.9,191.5l0.1,8.3l2.1,2c2.1,2,2.1,2.1,2.1,4.2v2.2l4.1,4c3.4,3.3,4.1,4.1,3.7,4.7c-0.2,0.4-0.6,1.4-0.8,2.3
	c-0.6,2.4-7.1,4.1-7.1,1.9c0-1.5-1.3-2.9-2.8-2.9c-1,0-1.2-0.1-1.2-1.2c0-1.4-1.6-3.2-3-3.2c-0.9,0-1-0.1-1-3c0-3.3-1.3-5.2-3.4-5.2
	h-0.9v-9.2v-9.2l1.7-0.5c2-0.6,2.9-1.4,3.3-2.5c0.4-1.4,0.9-1.8,1.9-1.4C142.8,183.2,142.8,183.4,142.9,191.5 M222.1,192l3.2,3.3
	v2.4c0,3-0.8,3.6-4.3,3.6c-2.5,0-3.2,0.4-5.3,3.2c-0.7,1-1,1.1-3.2,1.1c-2.1,0-2.5,0.1-3.3,1c-2.5,2.9-3.1,3.3-4.1,3.3
	c-0.6,0-1.3,0.2-1.7,0.4c-0.7,0.3-4.3-0.6-6.7-1.7c-1.6-0.7-1.7-8.8-0.1-10.5c1.5-1.6,2.9-1.5,2.9,0.2c0,3,2.3,4.9,4.3,3.5
	c2.5-1.8,0.8-5.1-2.7-5.1c-0.9,0-1.2-0.2-1.1-0.7c0.2-1.2,1.9-1.7,6.5-1.7c4.7,0,4.6-0.1,6.1,2.3c1,1.5,1.9,1.9,3.2,1.2
	c2.2-1.2,2-3.4-0.4-4.5c-2.9-1.4-2.4-3.1,1-3.6c0.8-0.1,1.6-0.4,1.7-0.6C218.5,188.5,218.9,188.7,222.1,192 M228.9,190.5
	c0,2.5-1.4,3.5-2.9,2c-1.8-1.8-1.4-2.9,1-2.9C228.7,189.6,228.9,189.6,228.9,190.5 M130.4,191.2c0.3,0.3,0.5,2.4,0.5,6.6
	c0,6.8,0.5,8.2,3,8.2c0.9,0,1,0.1,1,3c0,3.3,1.3,5.2,3.4,5.2c0.7,0,0.9,0.2,0.9,0.9c0,1.5,1.4,3,2.8,3c1.1,0,1.2,0.1,1.1,1.3
	l-0.1,1.3l-3,0.1l-3,0.1l-0.7-1.5c-0.5-0.9-1.3-1.8-2.3-2.3c-0.8-0.4-1.6-1.1-1.7-1.4c-0.4-1.5-1.1-2.4-2.5-2.9l-1.5-0.6V202
	C128.1,190.4,128.4,189.2,130.4,191.2 M260.1,191.6c0.1,0.5,0.2,1.7,0.1,2.6l-0.1,1.7l-2.7,0.1c-3.3,0.1-4.1-0.4-2.4-1.6
	c0.6-0.5,1.8-1.5,2.6-2.3C259.3,190.5,259.8,190.4,260.1,191.6 M215.4,194.2c1.3,1,1.5,1.7,0.6,2.5c-1.1,1-1.6,1-2.5,0
	C212.1,195.2,213.9,193.1,215.4,194.2 M204,199.1c0.8,2.4-2.2,3.6-3.3,1.2c-0.4-0.9-0.3-1.1,0.5-2
	C202.3,197.3,203.6,197.6,204,199.1 M228.2,202.3c0.5,0.5,1.2,1.4,1.7,1.9s1.5,1.5,2.3,2.2c2.3,2.2,1.6,7.9-1,7.9
	c-0.5,0-1.3,0.9-2,2.3c-0.8,1.6-1.8,2-4.4,1.7c-3.1-0.3-4.8-2.6-2.7-3.8c0.4-0.2,0.9-0.5,0.9-0.5c0.1-0.1-0.3-0.6-0.9-1.1
	c-0.6-0.6-1-1.2-1-1.4c0-3.3-7.2-2.9-9,0.5c-0.3,0.6-1.1,1.3-1.9,1.7c-0.9,0.4-1.6,1.1-1.9,2c-0.3,0.7-0.9,1.5-1.2,1.7
	c-0.7,0.4-0.4,1.2,0.4,1.2c0.3,0,0.8,1,1.2,2.3c0.7,2.7,0.8,3.5,0.3,3.5c-0.2,0-0.5,0.3-0.6,0.7c-0.9,2.8-6.3,2.1-8.4-1
	c-0.5-0.7-1.3-1.5-1.9-1.8c-1.5-0.7-1.9-1.9-2.3-6.3l-0.3-3.8l1.1-1.2c1.4-1.5,1.7-1.5,4,0.6c2.3,2,2.3,2,3.6,0.9
	c0.6-0.5,1.7-1.1,2.6-1.4c1.9-0.6,2.3-1,2.8-2.6c0.4-1.1,0.5-1.2,3-1.3c3.1-0.1,4.3-0.8,5.2-2.8l0.7-1.4l3.2-0.2
	c2-0.1,3.5-0.5,4.1-0.9C227,201.1,227.2,201.1,228.2,202.3 M167.7,202.9c0,1.5,1.5,3.1,2.9,3.1c0.8,0,1,0.2,1,1
	c0,1.4,1.6,2.9,3.1,2.9c1.1,0,1.2-0.1,1.2-1.1c0-1.4-1.7-3.2-3-3.2c-0.7,0-0.9-0.2-0.9-0.9c0-1.4-1.7-3-3.1-3
	C167.8,201.7,167.7,201.8,167.7,202.9 M219.6,210.9c1.9,1.8,0.8,3-2.9,3c-3.5,0-4.6-1.1-3-2.9C214.9,209.6,218.1,209.5,219.6,210.9
	 M121.4,212.5c0,0.3,2.7,3,3,3s-0.9-1.4-2-2.4C121.7,212.3,121.4,212.2,121.4,212.5 M212,214.7c0.7,0.7,0.6,1.7-0.5,2.6
	c-1.8,1.5-3.6-0.3-2.1-2.1C210.3,214.2,211.2,214,212,214.7 M219.7,215.3c0.3,0.3,0.6,1,0.6,1.5s0.1,1.4,0.2,2.1
	c0.5,2.4-1.1,3.2-6,3.2c-4.7,0-5.3-0.2-5.1-1.8c0.1-0.9,0.5-1.3,1.6-1.8c0.8-0.4,1.7-1.2,2.1-2C214.1,214.5,218.1,213.8,219.7,215.3
	 M194.8,220.1c0,1.8-0.4,2.1-1.5,1.3c-1.4-1-0.2-3.9,1.2-3.1C194.6,218.5,194.8,219.3,194.8,220.1 M228.4,219.9
	c0.3,0.4,0.2,0.7-0.5,1.4c-1.1,1-2.7,1-2.9-0.1C224.8,219.7,227.5,218.7,228.4,219.9 M147.3,223.4c0,1.1-1.9,2.2-2.4,1.4
	c-0.8-1.3-0.3-2.3,1.3-2.3C147.1,222.5,147.3,222.7,147.3,223.4 M224.5,223.5c-0.2,1.3-1.1,1.9-2.4,1.6c-1.8-0.5-0.7-2.6,1.4-2.6
	C224.5,222.5,224.6,222.6,224.5,223.5 M231.6,223.4c1.5,2.7,0.1,10.7-1.7,10c-1-0.4-0.9-9.1,0-10.1
	C230.9,222.3,231,222.3,231.6,223.4 M199.1,224.2c0,1-0.5,1.8-1,1.8c-0.6,0-1.8-1.8-1.5-2.1C197.1,223.4,199.1,223.7,199.1,224.2
	 M219.5,227.3c0.7,1.9-1.4,2.5-8.8,2.6c-2,0-8.7-0.6-9.3-0.9c-1.8-0.8-0.4-1.4,3.6-1.4c1.7,0,3.5-0.3,4.2-0.6
	C211.3,226,219,226.2,219.5,227.3 M224.5,230.1c0.1,2.2,1.5,4.5,2.7,4.5c0.6,0,1.3,6.1,1,9.6c-0.3,5-0.4,5.1-2.1,5.8
	c-1.1,0.5-1.7,1.1-2.2,2.2c-1.1,2.5-6.5,2.2-6.5-0.4c0-0.4-0.3-1.4-0.6-2.2c-0.4-0.9-0.6-2.7-0.6-5.5c0-4.5-0.5-5.8-2.5-5.8
	c-1,0-1,0-1-3.1c0-3.7,0-3.7,4.2-4c3.1-0.2,3.7-0.5,4.6-2.5C222.8,226.5,224.4,227.1,224.5,230.1 M130.4,230.4
	c0.9,1.7,1.2,2.6,1.2,4.2c0,1.9,0.1,2.2,1.5,3.4c1.3,1.2,1.6,1.7,2,4s0.6,2.8,2.1,4.1c1.5,1.4,1.6,1.6,1.8,4.3
	c0.3,3.3,0.4,3.6,2.3,4.6c1.6,0.8,6,5.2,6,5.9c0,0.6,2,2.3,2.7,2.3c0.3,0,1.2,0.4,1.9,0.8c1.2,0.8,1.3,0.8,0.8,0s-1.9-1.6-2.8-1.6
	c-2.2,0-2.1-2.9,0.2-4.6l1.6-1.2l-1.5-1.2c-2-1.6-1.9-1.6-3.5-3.4c-0.9-1-1.5-1.4-1.6-1.1c-1.9,4.5-5,3.8-5.3-1.3
	c-0.2-3.2-0.6-4.3-2.2-5.9c-1.4-1.5-2-3.3-2.3-7.4c-0.3-3.7-0.8-5.2-1.9-5.2c-0.2,0-0.8-0.3-1.2-0.7s-1.3-1.1-1.9-1.4l-1.1-0.7
	L130.4,230.4 M207.7,231.9c0.6,0.3,0.8,0.8,0.8,2.6c0,2.6,1,4,2.8,4c1.5,0,1.6,2.3,0.2,3.3c-1.5,1.1-5.3,0.8-6.3-0.4
	c-0.5-0.6-1.7-1.9-2.7-2.9c-2.1-2.1-2.8-6.3-1.2-6.7C202.7,231.4,207,231.5,207.7,231.9 M186.9,235.3c3.3,0.2,4.4,0.7,4.4,1.9
	c0,0.9,1.8,2.6,2.7,2.6c2,0,1.6,5.5-0.5,7.6c-0.8,0.8-1.4,1.8-1.4,2.2c0,0.6-0.3,0.9-1.1,1.1c-1.4,0.3-2.8,1.6-2.8,2.5
	c0,1-1,1.7-2.3,1.4c-0.6-0.1-1.7-0.4-2.4-0.5c-1.5-0.2-2.2-0.8-2.4-1.9c-0.3-1.4-2.6-2.5-5-2.5c-2.3,0-3.2-0.4-3.2-1.6
	c0-0.9-1.5-2.1-3.4-2.7c-1.8-0.5-1.8-1.7-0.2-2.3c0.7-0.3,2.8-2.4,2.8-2.9c0-0.2,0.7-0.8,1.6-1.3c0.9-0.5,2-1.7,2.6-2.6l1-1.6
	l3.2,0.2C182.2,235,185.1,235.2,186.9,235.3 M237.3,240.4c-0.5,0.6-1,1.2-1,1.3c0,0.2-0.4,0.4-0.8,0.6c-1.2,0.4-2,2.2-2,5.1
	c0,2.7-0.8,3.8-2.9,4.2c-0.4,0.1-0.9,0.6-1.1,1.3c-0.4,1.4-1.4,2.6-2.3,2.6c-1.5,0-2,1.2-1.9,5.5c0,4.1,0.4,5.5,1.6,5.5
	c1.6,0,2.7,1.9,2.7,4.7v2.7l1.6,0.9c1,0.5,2,1.5,2.4,2.4c0.4,0.8,1,1.5,1.3,1.5c1.4,0,2.8,2.2,2.8,4.5v2.2h7.4h7.4l0.1-5.9
	c0.1-7.2,0-7.4-3.7-7.4c-2.6,0-4.5-1.1-4.5-2.7c0-0.9-0.7-1.6-1.6-1.6c-0.9,0-2.3-1.3-2.3-2.1c0-0.3-0.5-0.9-1-1.3
	c-0.6-0.4-1.5-1.1-2.2-1.6l-1.2-0.9v-6.8v-6.8l1.2-0.9c0.6-0.5,1.6-1.2,2.2-1.6c0.9-0.6,1-1,1-2.7
	C240.7,239.4,239.2,238.3,237.3,240.4 M246.6,244c-0.5,0.4-0.9,0.9-0.9,1.1c0,0.6-1.5,2.1-2.1,2.1c-2.1,0-2.9,13.2-0.9,14.8
	c1.4,1.2,2,2,2.2,3.6c0.3,1.6,0.9,2,4.2,2c2.7,0.1,3-0.1,4.6-2.4c0.8-1.1,1.7-1.9,2-1.9c1.8,0,2.6-3.4,1.7-7.5
	c-0.3-1.2-0.6-3.4-0.7-5c-0.2-2.8-0.2-2.8-1.6-3.5c-0.7-0.4-1.7-1.2-2.1-1.9c-1.2-2.1-1.5-2.2-3.7-2.2
	C248.1,243.3,247.2,243.5,246.6,244 M198.6,248.5c0.3,0.3,0.5,0.8,0.5,1.1c0,0.9,1.5,2.4,2.7,2.6c1.2,0.2,1.6,1.2,1.6,3.8
	c0,1.8-0.6,2.2-3.5,2.2c-2.7,0-4.4,0.9-4.4,2.4c0,1-1.1,1.4-3.5,1.2l-2.1-0.2l-0.6-2.4c-0.7-2.7-0.6-3.7,0.3-3.7
	c0.8,0,2.6-1.8,2.9-3c0.1-0.4,0.8-1,1.6-1.3c0.7-0.3,1.8-1.1,2.4-1.8C197.7,247.9,197.9,247.8,198.6,248.5 M256,256.1
	c1,2.6,0.5,5.2-1.1,5.9c-0.9,0.4-1.7,1-2,1.7c-0.3,0.6-0.6,1.3-0.8,1.6c-0.6,1.3-5.5,0.9-5.5-0.3c0-0.4-0.3-1.5-0.6-2.4
	c-0.7-2-0.6-2.4,1.3-3.5c0.8-0.5,1.8-1.5,2.2-2.1C250.8,254.6,255.2,254.1,256,256.1 M105,262.4c0.2,0.6,0.6,1.8,0.8,2.8
	c0.2,1,0.7,2.4,1,3.1c0.7,1.5,0,2.7-2.3,3.6c-0.6,0.3-1.2,0.8-1.4,1.3c-0.4,1.2-1.3,2.2-2.8,2.9c-1.2,0.6-1.3,0.7-1.3,2.9v2.3h6.8
	h6.8l0.6-1.8c0.6-1.9,0.2-3.7-1-3.7c-1.3,0-2.3-1.9-2.3-4.3c0-2.2-0.1-2.4-1.8-4.1c-1-1-1.8-2.1-1.8-2.4c0-0.6-1.5-3.7-1.8-3.7
	C104.7,261.3,104.8,261.8,105,262.4"/>
<path id="path3" class="st6" d="M186.7,143.4c-0.1,0.3-0.2,1.2-0.3,2.1l-0.1,1.6l-2,0.2l-2,0.2l-0.1,1.8l-0.1,1.8l-1.8,0.1l-1.8,0.1
	l-0.1,1.8l-0.1,1.8l-1.8,0.1l-1.8,0.1l-0.2,2.2l-0.2,2.2l-3.2,0.2c-3.7,0.3-3.7,0.3-4.2,2.2l-0.4,1.4l-3.2,0.2
	c-3.6,0.3-4.2,0.6-4.6,2.5c-0.2,1.3-1.4,2.2-2.8,2.2c-0.9,0-1.1,0.7-1.3,4s-0.4,3.6-2.5,4c-1.7,0.4-1.9,1.7-1.9,13.4
	c0,8.9-0.1,10.7-0.5,10.7c-0.9,0-1-0.9-1-9.1c0-10.8-0.3-11.3-6.6-11.5c-3.1-0.1-4,0.4-4,2.3c0,1.6-1.1,2.2-4.5,2.2
	c-2.7,0-3.1,0.3-3.5,2.2c-0.2,1.1-0.5,1.3-2.1,1.6c-2.4,0.4-2.3,0.1-2.3,13.5c0,12.9,0,13,1.9,13.3c2,0.3,2.3,0.6,2.3,2.1
	s0.4,1.8,2.3,2.1c1.2,0.2,1.4,0.4,1.8,2c0.5,2,1,2.2,5.2,2.3c2.7,0.1,3,0.3,2.6,1.8c-0.2,0.9-0.4,1-2.7,1s-2.5,0.1-3.4,1.2
	c-1,1.3-1.9,1.5-4.4,1l-1.5-0.3l1.8,1.4c1,0.8,2,1.4,2.2,1.4c1,0,1.5,1.6,1.8,5.2c0.3,4.1,0.9,6,2.3,7.4c1.6,1.6,1.9,2.7,2.2,5.9
	c0.3,5.1,3.4,5.9,5.3,1.3c0.1-0.3,0.7,0,1.6,1.1c1.6,1.8,1.5,1.7,3.5,3.4l1.5,1.2l-1.6,1.2c-2.6,1.9-2.4,4.2,0.4,4.8
	c0.6,0.1,1.5,0.6,1.9,1.1c0.8,0.9,0.8,0.9,0.8,0.1c0-1.1-1.2-2.1-2.9-2.4c-0.8-0.1-1.4-0.3-1.4-0.5c0-0.6,1-1.2,1.8-1.2
	c1.8,0,4.8-1.9,4.8-3c0-1.7,1.8-2.1,8.8-2.1h6.8l0.4-1.2c0.5-1.4,6.5-1.9,7-0.6c0.5,1.4-0.6,2.2-3,2.2c-3,0-3.5,0.2-3.5,1.6
	c0,2.5,5.3,3.4,7.1,1.2c1.4-1.6,3.8-2.1,3.8-0.8c0,0.7,1.6,2.7,2.2,2.7c0.9,0,1.7,1,1.7,2.2c0,1.8,0.4,2,4.1,2.3
	c3.1,0.3,5.5,1.3,3.1,1.3c-2.3,0-3.2,1.9-3.3,6.9c-0.1,3.7,0.1,4.1,1.8,4.1c2.1,0,2.4,0.4,2,2.8c-0.3,2-0.2,2.1,0.3,1.3
	c1.5-2,0.8-4.3-1.5-5.1c-2.2-0.7-2.2-8.4-0.1-8.4c0.3,0,1-0.5,1.6-1.1l1.1-1.1l-0.8-0.8c-0.6-0.6-1.3-0.8-3-0.8
	c-2.8,0-3.5-0.4-4.4-2.5c-0.9-1.9-3.7-4.7-5.7-5.5c-0.8-0.3-1.8-1.3-2.5-2.3c-1.1-1.7-1.2-1.7-3.7-1.9c-3.2-0.3-3.5-0.4-4.5-2.2
	c-0.6-1.2-1.1-1.5-2.7-2c-2.6-0.7-3.8-1.4-4.3-2.4c-0.6-1.2-1.8-2.4-2.4-2.4c-0.3,0-0.9-0.7-1.5-1.5c-1-1.6-1.8-2.4-3.1-3
	c-0.5-0.2-1.1-1-1.4-1.7c-0.3-0.7-1-1.5-1.7-1.7c-1.9-0.8-2.3-1.4-2.3-3.6c0-2.2,0.8-3.8,1.8-3.8c0.8,0,2.1-1.5,2.1-2.4
	c0-0.5,0.5-1,1.5-1.4c1.6-0.7,2.3-1.3,3.3-3.2c1.1-2,6.2-1.7,6.2,0.4c0,1.4,2.2,2.7,4.7,2.7c2.7,0,3.5,0.3,3.5,1.1
	c0,0.4,0.4,1.1,0.9,1.7c2,2.3,8.5,1.2,8.5-1.4c0-0.4,0.5-0.9,1.1-1.1c2.8-1.2,3.8-3,2.4-4c-1.8-1.2-3-0.6-3.8,1.9l-0.5,1.5l-3.8-0.1
	l-3.8-0.1L176,221c-0.5-2-1.4-2.6-3.7-2.6c-3.4,0-4.4-0.3-4.6-1.5c-0.4-2.2-1.4-2.8-4.7-2.8h-3l-0.5-1.4c-0.5-1.5-2.1-2.9-3.1-2.9
	c-0.8,0-1.2-1.4-1.2-4.4c0-2.2-0.4-3.2-2-4.7l-1.1-1v-10.1c0-10.7,0.2-11.9,1.8-11.9c1.3,0,2.1-1.6,2.1-4c0-2.8,0.4-3.6,1.9-4.2
	c0.6-0.2,1.5-1,1.9-1.7c1.3-2.1,1.5-2.3,3.9-2.3c2.5,0,3.9-0.8,4.8-2.7c0.7-1.6,6.6-1.9,6.6-0.4c0,3.2,9.2,4.6,12.3,1.8
	c0.8-0.7,1.4-1.6,1.4-2c0-0.7,0.4-0.7,5.3-0.7h5.3l0.6,2.1c0.3,1.2,0.6,2.4,0.6,2.7s0.4,0.9,0.8,1.3c1.4,1.2,2.1,0.4,2.3-2.6
	c0.1-2.8-0.1-3.1-2.2-3.7c-1.2-0.3-1.5-0.6-1.6-1.6c-0.4-3.4-11-4-11-0.6c0,2-1.1,2.4-7.6,2.4h-6.1v-2c0-2,0.9-3.5,2.1-3.5
	c0.8,0,2.2-1.4,2.2-2.2c0-1,0.7-1.7,1.7-1.7c0.9,0,2.1-1.3,2.4-2.7c0.2-0.8,0.6-1.2,1.9-1.6c1.2-0.4,1.7-0.8,1.9-1.7
	c0.6-2.2,0.6-2.2,8.9-2.2c8.1,0,8.7,0.1,8.7,1.8c0,1.3,1.4,2.1,3.9,2.1c3.3,0,3.9,0.3,4.3,2c0.4,1.6,0.9,2.1,2.4,2.5
	c0.7,0.2,1.2,0.8,1.8,1.9c0.6,1.4,1,1.7,2.2,2c1.7,0.4,1.9,0.9,1.9,4.5c0,4.4,0.8,5.1,4.4,4c1.7-0.5,3.4,0.2,3.4,1.5
	c0,1.5,0.4,2,2.2,2.6c1.3,0.4,1.6,0.8,1.9,2c0.2,0.8,1,2.1,1.7,2.8l1.3,1.3v8.4c0,9,0,8.8-2.1,9.9c-0.5,0.2-1.2,1.1-1.6,1.9
	c-0.4,0.8-1.1,1.6-1.4,1.7c-1.2,0.4-2.7,1.8-2.7,2.5s2.3,3.2,2.9,3.2c0.2,0,0.7,0.4,1.2,0.9c2.9,2.8,2.3,11.7-0.8,11.7
	c-1.8,0-1.9,2.2-0.3,3.3c1.8,1.2,2.3,2.8,2.4,8.1c0.2,6.6,0.1,7.4-1.8,8.4c-2.2,1.1-2.2,1.3-2.3,4.3c0,1.5-0.2,4.8-0.4,7.2l-0.3,4.5
	l-1.2,0.3c-1.6,0.3-2.5,1.2-2.5,2.4c0,1.5-0.7,1.9-3.8,1.9c-3.6,0-4.2-0.3-5.4-3l-1-2.1H211c-4.6,0-5.4-0.3-5.9-1.9
	c-0.2-0.6-1-1.5-1.7-1.9c-2.1-1.3-2.3-1.5-2.3-3.9c0-2.3-1.2-4.2-3.2-4.9c-0.4-0.1-0.7-0.6-0.7-1c0-0.9-1.2-2.2-2.7-2.8
	c-0.7-0.3-1.4-1-1.7-1.7c-1.3-3.1-6.3-3.9-8.4-1.5c-1.9,2.2-0.4,3.4,4.5,3.6l3.3,0.1l0.1,1.2c0.2,1.3,1.4,2.5,2.9,2.8
	c1.2,0.2,1.5,1.2,1.5,4.6c0,2.3,0.5,3,2.1,3.6c0.8,0.3,1.3,0.8,1.6,1.6c0.5,1.4,1.6,2.5,2.6,2.5s1.4,1,1.7,4
	c0.4,3.5-0.6,4.7-4.1,4.7c-2.7,0-4.3,1-3.5,2.4c0.3,0.6,0.9,0.7,4.9,0.7c4.6,0,6.4,0.5,6.4,1.8c0,0.6,2.2,2.5,2.9,2.5
	c1.8,0,2.2,3.7,1.2,9.8c-0.4,2.2,0.8,3.1,3.8,3.1c3.6,0,3.6-1.9,0.1-2l-2.3-0.1l-0.1-5.4c-0.1-6.6,0-6.5-2.2-6.5
	c-1.6,0-1.7-0.1-2-1.1c-0.5-2.4-1.5-2.8-6.6-2.8c-2.5,0-4.9-0.1-5.2-0.2c-1.3-0.5-0.1-0.9,2.3-0.9c4.4,0,5.2-0.8,5.4-5.5l0.1-2.9
	h4.5h4.5v1.4v1.4l-2.4,0.1c-1.9,0.1-2.6,0.3-3.3,1.1l-0.9,0.9l1,1c1.6,1.6,5.3,1.5,6.7-0.2c1.1-1.3,4.3-2,6.6-1.4l1,0.3l0.1,5.4
	l0.1,5.4l1.9,0.6l1.9,0.6v2.4c0,3.6,0.5,4.8,2.4,5.3c1.2,0.4,1.6,0.7,1.8,1.5c0.3,1.6,0.7,2.1,1.9,2.4c1.8,0.5,2.2,1.1,2.2,3.1
	c0,1.8,0.1,1.9,1,1.9s1-0.1,1-2.2c0-2.3-1.4-4.5-2.8-4.5c-0.3,0-0.9-0.7-1.3-1.5c-0.5-0.9-1.4-1.8-2.4-2.4l-1.6-0.9v-2.7
	c0-2.8-1.1-4.7-2.7-4.7c-1.2,0-1.6-1.3-1.6-5.5c0-4.3,0.4-5.5,2-5.5c0.8,0,1.9-1.2,2.2-2.6c0.2-0.6,0.6-1.2,1.1-1.3
	c2.1-0.4,2.9-1.5,2.9-4.2s0.7-4.7,1.9-5c0.4-0.1,1-0.8,1.4-1.4c0.9-1.5,2.5-2,3.3-1c1,1.3,0.7,4.7-0.5,5.6c-0.6,0.4-1.5,1.1-2.2,1.6
	l-1.2,0.9v6.8v6.8l1.2,0.9c0.6,0.5,1.6,1.2,2.2,1.6c0.6,0.4,1,1,1,1.3c0,0.8,1.5,2.1,2.3,2.1s1.6,0.8,1.6,1.6c0,1.6,1.8,2.7,4.5,2.7
	c3.8,0,3.9,0.2,3.7,7.3l-0.1,5.8l1,0.1l1,0.1l0.1-5.8c0.2-8.1-0.6-9.5-5.8-9.5c-3.5,0-3.3-1.3,0.2-1.5c3.8-0.2,5.7-1.1,5.7-2.9
	c0-0.7,1.5-1.6,2.7-1.6s1.4-1.4,1.3-8.4c-0.2-9.2-0.3-9.6-2.9-10.2c-0.8-0.2-1.2-0.6-1.5-1.8c-0.8-3.1-8.7-3.3-9.6-0.3
	c-1,3.3-2.5,2.6-2.5-1.1c0-3.8-0.3-4.2-2.9-4.8l-2.2-0.5v-2.5c0-2.6-0.2-2.3,3.2-5.1c0.6-0.5,0.7-1.4,0.7-8.9
	c0-9.1,0.1-9.4,2.4-10.6c0.5-0.3,1.2-0.9,1.4-1.4c0.4-0.8,2.2-1.6,3.7-1.6c0.9,0,1.5-0.8,1.5-1.8s1.5-2.5,2.6-2.5
	c1,0,1.7-0.7,1.7-1.8c0-1.4,0.8-1.8,3.8-1.8c4.2,0,4.4-0.1,4.4-4.1c0-2.3,0.2-3.4,0.5-3.7c0.9-0.7,1-0.1,1,3.5
	c0,4.4-0.1,4.3,5.9,4.2l4.8-0.1l0.1-5.7c0.1-6.9-0.6-6.3,8.1-6.3c7.8,0,8-0.1,8.4-2.2l0.2-1.5l5.7-0.2c6.3-0.2,5.8,0,6.5-3.2
	l0.2-1.1h3.7c4.1,0,3.9,0.1,4.2-2.7c0.1-0.7,0.4-1,1.1-1.1c0.5-0.1,1.4-0.2,1.9-0.3l0.9-0.2V165v-9.2l-0.9-0.2
	c-0.5-0.1-1.3-0.2-1.9-0.3c-0.9-0.1-1-0.2-1.2-3.6c-0.3-4.5-0.3-4.5-3.5-4.5c-3.6,0-3.5-0.2-3.6,8.7l-0.1,7.6l-1.8,0.2l-1.8,0.2
	l-0.2,1.8l-0.2,1.8l-1.8,0.2c-1.7,0.2-1.8,0.2-1.9,1.8c-0.2,2.4-0.5,2.6-4.6,2.6h-3.7v1.8c0,2.2,0.1,2.1-6.9,2.3l-5.1,0.1l-0.2,1.8
	c-0.3,2.3-1.3,2.5-1.5,0.2c-0.1-1.8-0.5-2.1-2.3-2.2c-1.4,0-1.5-0.1-1.8-2.5l-0.2-1.5l-5.2,0.1l-5.2,0.1l-0.2,8
	c-0.2,9.1-0.2,8.5-1,7.8c-0.4-0.4-0.6-1.4-0.6-4.1c0-5.3-0.2-6-2.2-7.2c-1.2-0.7-1.8-1.4-2.1-2.5c-0.8-2.7-4.3-2.7-5.7,0
	c-0.5,0.9-0.6,2.6-0.6,7.4c0,5-0.1,6.3-0.6,6.5c-1,0.4-1-0.1-1-8.5c0-9.2-0.3-11.2-1.7-11.2c-2,0-2.6-1-2.6-4s-0.4-4.3-1.5-4.3
	s-2.8-1.5-2.8-2.5c0-1.1-0.6-1.7-2.1-1.8c-1-0.1-1.2-0.4-1.7-1.8c-0.7-2.2-2-2.6-8.2-2.4c-5.1,0.2-5.8,0.4-6.1,2.3
	c-0.3,1.6-1.4,1.6-1.4,0c0-1.9-0.4-2.3-2.2-2.6c-1.5-0.2-1.7-0.4-1.7-1.3c0-2.7-0.1-2.8-4.2-2.9c-3-0.1-3.8-0.2-3.9-0.7
	c0-0.3-0.2-1.2-0.3-2.1l-0.2-1.5h-9.4C189.1,142.9,186.9,143,186.7,143.4 M309.5,149.7c0.4,0.4,0.6,1.4,0.6,3.1
	c0,2.5,1.1,4.6,2.5,4.6c1.6,0,1.8,1.2,1.8,7.3c0,6.6-0.2,7.2-2.1,8.2c-0.8,0.4-1.6,1.2-2,2c-0.8,1.8-1.6,2.1-4.5,2.1
	c-2.4,0-2.4,0-3.4,1.7c-1.4,2.3-1.3,2.2-6.3,2.2c-4.6,0-6.4,0.7-6.4,2.6c0,1.4-1.6,1.7-8,1.7c-7.6,0-8.3,0.3-7.9,2.9
	c1.3,8.6,0.7,10.1-4,10.1c-3.8,0-4.4-0.6-4.4-4.1c0-5-3.2-5.7-3.5-0.8c-0.3,3.9-0.5,4.1-4.3,4.5c-3.2,0.3-3.3,0.3-4.7,1.9
	c-0.8,0.9-1.7,1.6-2,1.6c-0.7,0-1.9,1.3-1.9,2.1c0,2.3-2.9,1.8-4.7-0.9c-0.3-0.5-0.8-0.8-1.1-0.8c-1.1,0-2.1-2-2.1-4.1v-2l2.1-1.2
	c1.4-0.8,2.3-1.6,2.7-2.6c0.4-0.9,1-1.5,1.4-1.5c2.2,0,2.8-1.9,2.8-9c0-8.2,0.7-9.4,3.2-5.2c0.4,0.7,1.1,1.4,1.4,1.5
	c1.9,0.7,2.1,1.2,2.1,5.7s0.1,4.8,1.9,5.7c2.2,1.2,2.4,0.4,2.4-7.6c0-8.9,0-8.8,4.6-8.8c3.1,0,4.4,0.6,4.4,1.8
	c0,0.8,1.6,2.4,2.5,2.5c0.4,0.1,1,0.7,1.3,1.3c1.3,2.7,1.6,3.1,2.2,3.3c0.4,0.1,1.2-0.7,2-1.9l1.4-2h4.5c4.5,0,6.4-0.6,6.4-2.1
	c0-1.3,1.7-2.2,4.1-2.2c2.6,0,3.3-0.4,4.3-2.2c0.4-0.7,1.2-1.5,1.9-1.8c0.7-0.3,1.6-1.1,2.1-2c0.5-0.8,1.5-1.9,2.2-2.3
	c1.9-1.1,1.9-1,1.9-7.9C306.9,149.8,307.6,147.8,309.5,149.7 M232.5,155.1c0.5,0.9,1.5,2,2.3,2.4s1.6,1.3,2,2
	c0.3,0.7,1.1,1.5,1.8,1.8c1.8,0.9,2.1,1.6,2.2,4.2c0,2.7,0.2,3.1,2.5,4.2l1.5,0.7v8.7c0,9.5-0.2,10.6-2,9c-0.7-0.6-0.8-1.2-0.8-7
	c0-7-0.1-7.5-2.6-8.7c-0.8-0.4-1.4-0.9-1.4-1.3c0-0.8-1.3-2.1-2.9-2.8c-0.7-0.3-1.2-0.9-1.3-1.4c-0.1-1-1.5-2.4-2.6-2.6
	c-0.4-0.1-1.1-0.8-1.4-1.5c-0.7-1.5-1.4-2.2-2.8-2.9c-0.5-0.2-1.1-0.9-1.4-1.5c-0.3-0.6-1.1-1.4-1.8-1.8c-3.8-2.2-2.9-3.1,3.3-3.1
	h4.7L232.5,155.1 M223.7,158.9c0.5,1.3,1.7,2.8,2.3,2.8c0.8,0,1.8,1.1,1.5,1.6c-0.1,0.2-1.3,0.4-2.6,0.4h-2.3V161
	C222.6,158.3,223.1,157.3,223.7,158.9 M198.6,159.1c-0.1,0.4-1.4,0.5-4.4,0.5c-3.1,0-4.3-0.1-4.4-0.5c-0.1-0.4,0.9-0.5,4.4-0.5
	C197.7,158.6,198.7,158.7,198.6,159.1 M186.8,163c-0.2,0.6-9.7,0.9-9.7,0.4c0-0.7,0.7-0.9,5.2-0.9C185.9,162.5,187,162.6,186.8,163
	 M202.9,164.9c-0.1,2.8-0.8,3.1-1.2,0.5c-0.4-2-0.2-3,0.7-3C202.9,162.5,203,162.9,202.9,164.9 M231.8,167.2
	c-0.3,0.5-1.3,0.4-1.3-0.2c0-0.3,0.1-0.6,0.3-0.8C231.1,165.9,232.1,166.8,231.8,167.2 M235.7,170.9c0.3,0.7-0.5,1.2-1,0.7
	c-0.4-0.4-0.1-1.3,0.5-1.3C235.3,170.3,235.6,170.6,235.7,170.9 M239.9,181.2c0.3,7.8,0.3,8.1,2.6,9.2c2.1,1,2,1.8-0.4,2.4
	c-0.9,0.2-1.9,0.6-2.3,0.8c-0.5,0.3-0.8,0.2-1.1-0.4c-0.5-0.8-0.6-18.2-0.1-18.6C239.4,173.7,239.7,175,239.9,181.2 M144.6,181.7
	c1.7,0.1,1.9,1.2,1.9,9.9v8.4l1.4,1.2c0.7,0.7,1.5,1.2,1.6,1.2c0.7,0,1.3,1.6,1.3,3.6c0,2.2,1.3,4.1,3.2,4.8
	c0.4,0.1,0.7,0.5,0.7,0.8c0,0.6,2.9,3.4,3.5,3.4c1,0,0.6,1.3-0.7,2.5c-0.9,0.9-1.6,2-1.9,3.1c-0.3,1.4-0.6,1.7-1.5,1.8
	c-1.3,0.1-2.9,1.1-3.7,2.1c-2.2,3-6.8,3.1-7.4,0.2c-0.3-1.7-1.5-2.3-4.2-2.3c-2.6,0-4.1-0.7-4.1-1.9c0-0.8-1-1.8-2.4-2.3
	c-0.5-0.2-1.3-1-1.8-1.9s-1.4-1.8-2.2-2.3c-1.9-1-1.9-0.9-1.9-12.4c0-11.3,0-11.5,2.7-12.5c1-0.4,2-1.1,2.3-1.7
	c0.6-1.1,1.7-1.7,4.1-2.1c1.9-0.3,2.5-0.8,3.2-2.4c0.7-1.6,1.7-2,3.8-1.6C143.7,181.5,144.5,181.7,144.6,181.7 M218.1,189.1
	c-0.1,0.2-0.9,0.5-1.7,0.6c-3.5,0.6-3.9,2.2-1,3.6c2.4,1.1,2.5,3.3,0.4,4.5c-1.3,0.7-2.2,0.3-3.2-1.2c-1.6-2.4-1.4-2.4-6.1-2.3
	c-4.6,0-6.2,0.4-6.5,1.7c-0.1,0.5,0.1,0.7,1.1,0.7c3.5,0,5.2,3.3,2.7,5.1c-2,1.4-4.2-0.4-4.3-3.5c0-1.7-1.4-1.7-2.9-0.2
	c-1.6,1.6-1.5,9.7,0.1,10.5c2.5,1.1,6.1,2.1,6.7,1.7c0.4-0.2,1.1-0.4,1.7-0.4c1,0,1.5-0.4,4.1-3.3c0.8-0.9,1.2-1,3.3-1
	c2.2,0,2.5-0.1,3.2-1.1c2-2.8,2.7-3.2,5.3-3.2c3.6,0,4.3-0.6,4.3-3.6v-2.4l-3.2-3.3C218.9,188.7,218.5,188.5,218.1,189.1 M220,192.3
	c0.4,0.8,1.3,1.7,2.2,2.2c1.3,0.7,1.5,1,1.6,2.5c0.2,3.3,0,3.5-3.2,3.5s-4,0.4-5,2.5c-0.6,1.2-0.7,1.3-3.4,1.5
	c-3.2,0.3-3.6,0.5-4.6,2.5c-0.8,1.7-2,1.9-6.5,1.5l-3.3-0.3l-0.1-4.6c-0.1-4.8,0.5-6.2,1.2-2.8c0.5,2.4,4.2,3.6,6.4,1.9
	c2.1-1.6,0.8-6.4-1.7-6.4c-0.6,0-1.3-0.2-1.6-0.4c-0.4-0.3,0.9-0.4,4.1-0.4h4.7l0.6,1.6c0.7,1.9,1.9,2.5,4.5,2.1
	c3.6-0.5,3.7-6.4,0.1-7.1c-2.7-0.5-1.7-1.4,1.3-1.3C219.2,190.9,219.3,191,220,192.3 M236.8,195.3c0.5,0.5,0.4,0.8-0.6,1.6
	c-1.3,1.1-1.8,0.9-1.8-0.6C234.4,194.5,235.7,194,236.8,195.3 M232.7,199.7c-0.2,1.1-2.3,1.2-2.3,0.1c0-0.6,0.2-0.8,1.2-0.8
	C232.6,199,232.8,199.1,232.7,199.7 M154,205.8c0,2.7-0.2,3.2-1,2.5c-0.7-0.6-0.7-4.9,0-5.2C153.8,202.9,154,203.3,154,205.8
	 M157.9,212.1c0,0.6-0.9,0.5-1.1-0.1c-0.1-0.3,0.1-0.5,0.5-0.4C157.7,211.7,157.9,211.9,157.9,212.1 M123.1,213.7
	c1.3,1.5,1.9,1.2,0.9-0.4c-0.3-0.5-1-1-1.4-1C122,212.3,122,212.5,123.1,213.7 M166,216.2c0,0.4-0.6,0.6-2.3,0.7
	c-2.3,0.1-3.3-0.3-2.8-1.1C161.3,215.1,166,215.5,166,216.2 M193.3,218.8c-1.4,1-0.2,3.9,1.2,3.1c0.2-0.1,0.3-0.9,0.3-1.7
	C194.8,218.3,194.4,218,193.3,218.8 M158.3,220.1c0,0.8-0.9,1.1-1.4,0.4c-0.3-0.5,0.1-1.2,0.8-1.2
	C158.1,219.4,158.3,219.7,158.3,220.1 M174.3,220.2c0.1,0.6-0.2,0.7-2.4,0.7c-2.3,0-2.6-0.1-2.6-0.8
	C169.3,219,174.1,219.1,174.3,220.2 M186.9,220.4c0,0.6-0.8,0.8-1.3,0.3c-0.4-0.4,0.5-1.4,1-1.1
	C186.8,219.7,186.9,220.1,186.9,220.4 M225.6,219.9c-1,0.7-0.7,2,0.5,2.2s3-1.4,2.4-2.2C227.9,219.2,226.5,219.2,225.6,219.9
	 M221.7,223.2c-0.9,1-0.8,1.6,0.4,1.9c1.3,0.3,2.3-0.3,2.4-1.6C224.7,222.3,222.8,222,221.7,223.2 M154.1,223.9
	c0.1,0.1,0.1,0.5-0.2,0.8c-0.5,0.6-1.7-0.1-1.3-0.7C152.9,223.6,153.8,223.6,154.1,223.9 M182.7,223.9c0.6,0.6-0.7,1.3-2.5,1.3
	c-2.2,0-3.1-0.3-3.1-1C177.1,223.6,182.2,223.4,182.7,223.9 M196.6,223.9c-0.3,0.3,0.9,2.1,1.5,2.1c0.5,0,1-0.8,1-1.8
	C199.1,223.7,197.1,223.4,196.6,223.9 M209.1,227c-0.7,0.3-2.5,0.5-4.2,0.6c-3.9,0-5.4,0.6-3.6,1.4c0.6,0.3,7.3,0.9,9.3,0.9
	c7.3-0.1,9.5-0.7,8.8-2.6C219,226.2,211.3,226,209.1,227 M150.1,230.9c0,3.7-0.2,4.1-1.7,2.9c-2-1.5-1.3-6.2,0.8-6.2
	C150,227.6,150.1,227.7,150.1,230.9 M190.8,232.1c0.6,0.7-0.2,1-2.9,1c-2.1,0-3.1-0.6-2.1-1.2C186.7,231.3,190.3,231.5,190.8,232.1
	 M154,236c0.6,0.7,0.2,2.6-0.6,2.6c-1.1,0-2.3-2.1-1.5-2.6C152.8,235.3,153.4,235.3,154,236 M194.8,236.7c-0.5,0.5-1.2,0-1-0.7
	c0.2-0.5,0.3-0.5,0.8-0.1C195,236.2,195.1,236.5,194.8,236.7 M138.4,239.3c1,0.9,0.7,2-0.4,2c-1,0-1.3-0.5-1-1.7
	C137.3,238.4,137.3,238.4,138.4,239.3 M158.3,240.9c0,1.5-1,1.9-2,0.9s-0.7-2,0.9-2C158.2,239.8,158.3,239.9,158.3,240.9 M199,242.6
	c0.1,2.4,0.1,2.6-0.7,2.6s-1.3-4.5-0.5-5.2C198.5,239.3,198.9,240.2,199,242.6 M142.4,243.5c1.2,1.2,1.3,4,0.4,6.6
	c-0.3,0.9-0.6,1.9-0.6,2.3c0,0.4-0.3,0.7-0.7,0.7c-0.7,0-0.8-0.4-0.9-4.6C140.4,242.6,140.7,241.8,142.4,243.5 M232,246.3
	c0,2.4-0.3,3.3-1,3.3c-0.6,0-0.8-4.4-0.3-6.2l0.2-0.9l0.5,0.9C231.8,243.8,232,245.2,232,246.3 M252,243.8c0.2,0.3,0.8,1.1,1.2,1.7
	c0.4,0.7,1.3,1.5,2.1,1.9c1.3,0.6,1.4,0.7,1.6,3.5c0.1,1.6,0.4,3.8,0.7,5c0.9,4,0.1,7.5-1.7,7.5c-0.3,0-1.2,0.9-2,1.9
	c-1.6,2.2-1.9,2.4-4.6,2.4c-3.3-0.1-3.9-0.4-4.2-2c-0.2-1.5-0.8-2.4-2.2-3.6c-2-1.6-1.1-14.8,0.9-14.8c0.6,0,2.1-1.5,2.1-2.1
	C245.8,243.6,250.9,242.5,252,243.8 M162.1,244.1c0.6,0.6,0.6,1.2-0.1,2.1c-0.5,0.7-0.6,0.7-1.6-0.4c-1-1-1.1-1.1-0.4-1.6
	C161,243.5,161.5,243.5,162.1,244.1 M170.2,248.6c0.6,1.6-0.1,2.1-2.7,2.1c-2.6,0-4.1-0.9-3.6-2.1
	C164.3,247.7,169.9,247.7,170.2,248.6 M203.1,248.6c0.3,0.7-0.5,1.2-1,0.7c-0.4-0.4-0.1-1.3,0.5-1.3
	C202.8,248,203,248.2,203.1,248.6 M239.9,254.9c0,6.4-0.1,6.9-0.7,6.8c-1.3-0.2-1.2-13.7,0.1-13.7
	C239.8,248,239.9,249.1,239.9,254.9 M227.7,252.9c0,0.3-0.3,0.6-0.6,0.6c-0.7,0-1.1-0.6-0.7-0.9
	C226.9,252.1,227.7,252.3,227.7,252.9 M104.8,264.7c0.1,1.7,0.3,3.4,0.4,3.6c0.3,0.9-0.3,1.6-1.5,1.9c-1.7,0.4-2.2,0.9-2.2,2.1
	c0,1.3-0.7,2-2,2c-1.6,0-2,0.9-2.2,4.1l-0.2,2.9h1c1,0,1-0.1,1-2.3c0-2.2,0-2.3,1.3-2.9c1.5-0.7,2.4-1.7,2.8-2.9
	c0.1-0.5,0.8-1,1.4-1.3c1.9-0.8,3-2.3,2.5-3.1c-0.3-0.4-0.8-2.1-1.3-3.8C104.7,261,104.5,260.9,104.8,264.7 M243.6,265.5
	c-0.2,0.5-0.4,0.6-0.8,0.2c-0.5-0.4-0.5-0.6-0.1-1C243.3,263.9,244,264.5,243.6,265.5"/>
</svg>
